<mxfile host="Electron" modified="2024-05-06T00:57:31.771Z" agent="Mozilla/5.0 (Macintosh; Intel Mac OS X 10_15_7) AppleWebKit/537.36 (KHTML, like Gecko) draw.io/24.2.5 Chrome/120.0.6099.109 Electron/28.1.0 Safari/537.36" etag="1Znaa9-Tx67KDDBXx4pE" version="24.2.5" type="device">
  <diagram name="Page-1" id="6paiHQ3lh-6E-JxnFxzp">
    <mxGraphModel dx="359" dy="227" grid="1" gridSize="10" guides="1" tooltips="1" connect="1" arrows="1" fold="1" page="1" pageScale="1" pageWidth="850" pageHeight="1100" math="0" shadow="0">
      <root>
        <mxCell id="0" />
        <mxCell id="1" parent="0" />
        <mxCell id="PzClLLOftk57QwvuD_dU-1" value="" style="endArrow=classic;html=1;rounded=1;curved=0;strokeWidth=3;" parent="1" edge="1">
          <mxGeometry width="50" height="50" relative="1" as="geometry">
            <mxPoint x="40" y="320" as="sourcePoint" />
            <mxPoint x="760" y="670" as="targetPoint" />
          </mxGeometry>
        </mxCell>
        <mxCell id="PzClLLOftk57QwvuD_dU-7" style="edgeStyle=orthogonalEdgeStyle;rounded=0;orthogonalLoop=1;jettySize=auto;html=1;exitX=0.5;exitY=1;exitDx=0;exitDy=0;" parent="1" edge="1">
          <mxGeometry relative="1" as="geometry">
            <mxPoint x="368" y="415" as="sourcePoint" />
            <mxPoint x="368" y="415" as="targetPoint" />
          </mxGeometry>
        </mxCell>
        <mxCell id="PzClLLOftk57QwvuD_dU-8" value="" style="shape=image;verticalLabelPosition=bottom;labelBackgroundColor=default;verticalAlign=top;aspect=fixed;imageAspect=0;image=data:image/png,iVBORw0KGgoAAAANSUhEUgAAAgAAAAIACAYAAAD0eNT6AAAABHNCSVQICAgIfAhkiAAAAAlwSFlzAAAOxAAADsQBlSsOGwAAABl0RVh0U29mdHdhcmUAd3d3Lmlua3NjYXBlLm9yZ5vuPBoAACAASURBVHic7d1tsF1Xfd/xryz7XoMlxTZgt0yJBwITIt9r85AHO+SNscSTSWiHaUtgSNuRGprSlEBo0+mbNNOHaabxE5bl8Yw9yZTQhA50Jg0gkGSTGcxDPTg4tWTA0OLK7bQEiEFXTkDca/XFlkBH1r3nnrPW3v+19vp+ZtZgwHef/9pn7/X/nX3O2WcLdbgSuAG4Dngp8ELgecAlwEJgXZJi/T/gIeBB4D8BX40tR6rHlugCNnA58Fbg7cBPB9ciqXyrwH7gnwPfC65FKl6JAeD5wHuBX6Z7hS9Js3gAuAk4Hl2IVLKSAsCFwDuBfw1sD65FUt0eAnYDT0YXIpWqlADwEuCDwMujC5E0Gp8DXotXAqTzuiC6AOBNwOex+UvK6zrgE8CO6EKkEkUHgL8HfAhPUEn9uA64H7gsuhCpNJEBYC/wu3Tv/UtSX14JfAxfaEgToj4D8Cbgw8DWoMeX1B4/EyCdJSIAvJjuE7qmcUlD89sB0mlDvwVwEfCfsflLivFK4KO4BkmDB4B346f9JcW6Hj8YKA36FsDzgcfw7n6SyvBZ4HX4mQA1asgrAO/F5i+pHF4JUNOGugJwOXAMA4Ck8nglQE0a6grAW7H5SyqTVwKkHj0InMo0HgHeBVyNoUIau++Tb+2YNj6D3w6QsroSeJr0k/N7dL8W6M2DpHYMGQAMAVJmbyFP879x6MIlhRs6ABgCpIxuI/2EfOfgVUsqQUQAMARImRwg7UR8BC/7S62KCgCGACmDr5J2Er5r+JIlFSIyABgCpETfJO0E3Dl8yZIKER0ADAFSgu+RdvJtG75kSYUoIQCcAj6P9wmQZpZ64klqVykBwBAgzcEAIGleJQUAQ4A0IwOApHmVFgBO4WcCpE0zAEiaV2oAeCDx7w0BUgIDgKR5pQaAHXQ/9GMIkAIYACTNKzUAXAg8G0OAFMIAIGleOQIAGAKkEAYASfPKFQDAECANzgAgaV45AwAYAqRBGQAkzSt3AABDgDQYA4CkefURAMAQIA3CACBpXn0FADAESL0zAEiaV58BAAwBUq8MAJLm1XcAAEOA1BsDgKR5DREAwBAg9cIAIGleQwUAMARI2RkAJM1ryAAAhgApKwOApHkNHQDAECBlYwCQNK+IAACGACkLA4CkeUUFADAESMkMAJLmFRkAwBAgJTEASJpXdAAAQ4A0NwOApHmVEADAECDNxQAgaV6lBAAwBEgzMwBImldJAQAMAdJMDACS5lVaAABDgLRpBgBJ8yoxAIAhQNoUA4CkeZUaAMAQIE1lAJA0r5IDABgCpA0ZACTNq/QAAIYAaV0GAEnzqiEAgCFAOi8DgKR51RIAwBAgPYMBQNK8agoAYAiQJhgAJM2rtgAAhgDpBwwAkuZVYwAAQ4AEGAAkza/WAACGAMkAIGluNQcAMASocQYASfOqPQCAIUANMwBImtcYAgAYAtQoA4CkeY0lAIAhQA0aWwBYBm4HjgIn6OdkHtM4ARwBbgOW5tjfatuYAgAYAtSYsQSARWA/sEZ8U611rAL7gIUZ973aNbYAAIYANST1gC7BIv2dsC2OwxgCtDljDADQhYBP0s/5ZQhQMVIP5hLcRXzTHNu4Y6ZnQK0aawAAuARDgEYu9UCOtoyX/fsYq8DVMzwPatOYAwAYAhTogugCKrAX91MftgJ7oouQgj0FvBH4kx62fT3wcQwBCpSaYqMdJf7V8ljHIzM8D2rT2K8AnOGVAI1S6sEbbYX4RjnWcXyG50FtaiUAgCFAA/PS9nQlhJCxct9qmpOJf789SxXD8O0ADcoAMN0T0QWM2LHoAlS8lcS/f0GWKobzFPDzwAM9bPt64GPUFYrUIwPAdIeiCxixg9EFqHhPJv79a7JUMawTwOvpJwS8CjiAIUADSX3vKtoS3VfWot8vH9tYBXbO8DyoTX9M2nH2Rer6HMDZtgGfop/z7wEMARpA6oFagjuJb5hjG++b6RlQq36H9GPt1wavOh9DgKqWepCWYAG4j/imOZZxCG8FrM15M+nH20ngtUMXnpEhQNVKPUBLsUD3Qza+HTD/WKX7JUWbvzbrOeS5E+dJ4F34dsD5hiFAvUk9OEuzBNxK9xO33iNg+lihu+HPLXjrX83nAfIdj48C76E7j2treoYAVWdsAUDSsN5BfJBtYXwa7xPQlC0DPEZqEx+iRknlupTunhG+Qu3fp+m+gph6/wVVwPsASCrdt+l+klv9exXwEfycjjLxLQBJqa4EvkP8ZfJWxs2be1qkjRkAJOXwLuIbYyvjJPCizT0tqpVvAUiqxZ3Ag9FFNOIi4O3RRahfBgBJtVgF3kL3mQD174boAtQvA4CkmnwNeBvw/ehCGvDS6ALUL78GKKlGvwT8Hq4PfXP/jphXACTV6D/ShQCvBEhz8gqApJq9AfgA3c2ClJ/r74gZACTV7oXAHwI/HV3ICLn+jphvAUiq3deA6+l+M+A7wbVIOos3ApI0lCuA3waOE38znTEMjZhvAUgao0vp7hnwdrqrA64j83G/jZgBQNLYPZfupjbXAT9Bd4vb59L9uqA/erMx198RMwDMbhnYC+wCrgIuiS1HiZ4CHgcOA/cAR0KrkfIa2/qryozlPahFYD+wRvz7co5+xiqwD18VajxSzwmNmFcANmcROID3xm7FfXTfLz8ZXYiUaAzrr3ri1wA35zZs/i25EX8PXdLIeQVgumXgYQxLrVkDrgWORhciJah9/VWPbGrT7cX91KKtwJ7oIiSpLza26XZFF6Awu6MLkKS++BbAdCvAtuAaFGMF2BFdhJSg9vVXPfIKwHR+FaZdPveSRssAMN0T0QUozLHoAiSpLwaA6Q5FF6AwB6MLkKS++BmA6Zbovga4NbgODWsNuAZ4NLoQKUHt66965BWA6Y4Ad0cXocHtx+YvacS8ArA5C3S3An51dCEaxGHgJrwVsOo3hvVXPfEKwOacBF4P3El3aVjjtAa8D5u/pAZ4BWB2S3R3iNtN93PA3iOgbifofg74EHAv3vpX4zK29VcZGQAkabxcf7Uu3wKQJKlBBgBJkhpkAJAkqUEGAEmSGmQAkCSpQQYASZIaZACQJKlBBgBJkhpkAJAkqUEGAEmSGmQAkCSpQQYASZIaZACQJKlBBgBJkhpkAJAkqUEGAEmSGmQAkCSpQQYASZIaZACQJKlBBgBJkhpkAJAkqUEGAEmSGmQAkCSpQQYASZIaZACQJKlBBgBJkhpkAJAkqUEGAEmSGmQAkCSpQQYASZIaZACQJKlBBgBJkhpkAJAkqUEGAEmSGmQAkCSpQQYASZIaZACQJKlBBgBJkhpkAJAkqUEGAEmSGmQAkCSpQQYASZIaZACQJKlBBgBJkhpkAJAkqUEGAEmSGmQAkCSpQQYASZIaZACQJKlBBgBJkhpkAJAkqUEGAEmSGmQAkCSpQQYASZIaZACQJKlBF0YXUKFlYC+wC7gKuCS2HJ4CHgcOA/cAR3p+vNLmL6UY+vyRmnIqcZRiEdgPrJE+p77GKrAPWGh0/g5Hyujz/ImSuk+kJGM4ABeB+4lfoDY7DpN3Eatt/g5Hysh9/kRK3RdSkjEcgHcRvyjNOu5ofP4OR8rIef5ESt0PGrEtAzxG6kE0RI0bWQYepr4PTK4B1wJHE7dT6/ylFLnOn2i1r7/qkYv6dHupcz9tBfZk2E6t85dS5Dp/pGK5sE+3K7qABLszbKPm+Uspcpw/UrF8C2C6FWBbcA3zWgF2ZNhGrfOXUuQ4f6LVvv6qR14BmK7m5rc9wzb8IJBa5bGvUTMAaJonoguQghyLLkDqkwFA0xyKLkAKcjC6AKlPfgZgutovA6buvyW6rwFuzVCLVIs14Brg0ehCEtW+/qpHXgHQNEeAu6OLkAa2n/qbv7QhrwBM1/oVAOhui3oAeHWGbUmlOwzcBJyMLiSD2tdf9cgrANqMk8DrgTvpLo1KY7QGvI/xNH9pQ14BmM4rAJOW6O6Qtpvu54Br/pqkdILu54APAfdS/61/z1X7+qseGQCmi64/+vEl1cv1Q+vyLQBJkhpkAJAkqUEGAEmSGmQAkCSpQQYASZIaZACQJKlBBgBJkhpkAJAkqUEGAEmSGmQAkCSpQQYASZIaZACQJKlBBgBJkhpkAJAkqUEGAEmSGnRhdAENSP097tIsA3uBXcBVwCWx5YzeU8DjwGHgHuBIaDWSNINTiSNaav3RI5dFYD+wVsCcWh2rwD5gYcpzJZ1RyvqhAm0Z4DFSD6IhatxI7SdBjv23CBwAbsiwLaW7D3gDcDK6EBWv9vVXPfIzANqM27D5l+RG4OboIiTVzSsA07V+BWAZeBjDYmnWgGuBo9GFqGi1r7/qkYu6ptmLx0mJtgJ7oouQVC8Xdk2zK7oArWt3dAGS6uVbANO1/hbACrAtRyHKbgXYEV2Eilb7+qseeQVgupXoAhIcz7CN2gPQmPncSJqbAWC6J6ILSHAswzZqnv/Y5Xh+JTXKADDdoegCEhzMsI2a5z92OZ5fSepN7XeiWqK7A1v0XeDmuWvczobnP/aR6/nVuKUeZxoxrwBMdwS4O7qIOewHHs2wnVrnP3a5nl9J6s0YEugC3e1Xo1/1bXYcIu/94mub/9hH7udX45V6rElJxnIALtD9EEvJl8NXgdvppznUMP+xjz6fX41T6jEnJRnbAbgE3Ep3aXyF+KawAjwC3AJc3eO8zyht/mMfQz+/GpfU408j5o2AJGm8XH+1Lj8EKElSgwwAkiQ1yAAgSVKDDACSJDXIACBJUoMMAJIkNcgAIElSgwwAkiQ1yAAgSVKDDACSJDXIACBJUoMMAJIkNcgAIElSgwwAkiQ1yAAgSVKDDACSJDXIACBJUoMMAJIkNcgAIElSgwwAkiQ1yAAgSVKDDACSJDXIACBJUoMMAJIkNcgAIElSgwwAkiQ1yAAgSVKDDACSJDXIACBJUoMMAJIkNcgAIElSgy6MLqBCy8BeYBdwFXBJbDk8BTwOHAbuAY70/HilzV+KNPT5J1XlVOIoxSKwH1gjfU59jVVgH7DQ6PwdjsjR5/k3r9Q5SUnGcAAuAvcTv8Bsdhwm7yJU2/wdjsiR+/xLkToXKckYDsC7iF9UZh13ND5/hyNy5Dz/UqTOQyO2ZYDHSD2IhqhxI8vAw9T3gck14FrgaOJ2ap2/FCnX+Zeq9vVXPXJRn24vde6nrcCeDNupdf5SpFznn9QbF/bpdkUXkGB3hm3UPH8pUo7zT+qNbwFMtwJsC65hXivAjgzbqHX+UqQc51+q2tdf9cgrANPV3Py2Z9iGHwSS5uO5o6IZADTNE9EFSJU6Fl2AtBEDgKY5FF2AVKmD0QVIG/EzANPVfhkvdf8t0X0NcGuGWqRWrAHXAI8G11H7+qseeQVA0xwB7o4uQqrMfuKbv7QhrwBM1/oVAOhua3oAeHWGbUljdxi4CTgZXQj1r7/qkVcAtBkngdcDd9Jd2pT0TGvA+yin+Usb8grAdF4BmLREd4ez3XQ/B1zz1ySlVCfofg74EHAv8bf+PVft6696ZACYLrr+6MeXVC/XD63LtwAkSWqQAUCSpAYZACRJapABQJKkBhkAJElqkAFAkqQGGQAkSWqQAUCSpAYZACRJapABQJKkBhkAJElqkAFAkqQGGQAkSWqQAUCSpAYZACRJatCF0QU0IPX3uEuzDOwFdgFXAZfElqNgTwGPA4eBe4AjodVIKsqpxBEttf7okcsisB9YK2BOjjLHKrAPWEClSH1ONWJbBniM1INoiBo3UvtJkGP/LQIHgBsybEvjdx/wBuBkdCGqfv1Vj/wMgDbjNmz+2rwbgZuji5C0Ma8ATNf6FYBl4GEMi5rNGnAtcDS6kMbVvv6qRy7qmmYvHiea3VZgT3QRktbnwq5pdkUXoGrtji5A0vp8C2C61t8CWAG25ShEzVkBdkQX0bja11/1yCsA061EF5DgeIZt1B6AFMdjRyqYAWC6J6ILSHAswzZqnr9i5Tj+JPXEADDdoegCEhzMsI2a569YOY4/ST3xMwDTLdF9DW5rcB2zWgOuAR5N3E6t81esXMef0tS+/qpHXgGY7ghwd3QRc9hPnsW31vkrVq7jT1LFxnAv6gW625tG32t9s+MQee/HXtv8HbEj9/Gn+aU+l1KSsRyAC3Q/dLJK/AK73lgFbqefxbeG+TtiR5/Hn+aT+pxqxPwMwOyW6O5wtpvu53CjvyN/gu7nWA8B99L/rVdLm79iDX38aTZjW3+VkQFAksbL9XdjzwN+DngZ8GLgJcBzgMuAZ53+d/4KeBL4JvBV4CvAnwEPAN8YuN7qeAlKkmK4/j7TK+l+rfIo8DTz75un6T4k/R+AVww6g4p4AEpSDNffznbg14Ev0d9nYL4EvOf0Y+k0D0BJitH6+nsZ8O/oLuH31fjPHX8B/Fvg0gHmV7zWD0BJitLq+rsF+CXg6wzX+M8d3wLeReM3UWv1AJSkaC2uvy8GPkdc4z93fBb4sV5nXLAWD0BJKkFr6++bGfZy/2bHceBtPc67WK0dgJJUilbW3wuAW4lv9NPGzYz/q5UTWjkAJak0Lay/C8AHiG/umx0foKG7ZbZwAEpSica+/l4MHCC+qc86PkojIWDsB6AklWrM6+8i8BHim/m84w9o4Bd5x3wASlLJxrr+Xgx8gvgmnjpuzr1jSjPWA1CSSjfG9bf2V/7njrfm3T1lGeMBKEk1GNv6O7bmfwpYAX48504qydgOQEmqxZjW37Fc9j/f+Awj/TzAmA5ASarJWNbfMb7yP3fsyba3NmmIGxKkHkRN3TRBkjIaw/p7MfBHwGt6fIzjwB8Dn6T7Vb+vA//39P/3fOBK4CeAG4A30s8v/n0DeCndjwmNxlgSqCTVpvb1t+/L/l8E/sHpx9msZwF7gcd6qOffzFBHFWo/ACWpVjWvv302/78E3g1clFDfRcCvn95WrrqeBHYk1FScmg9ASapZretvn83/MeDqjLUuA1/JWN8/y1hbuFoPQEmqXY3rb5/N/yHgih5qvgL400w1fqmH+sLUeABK0hjUtv722fw/D1zWY+1XkO9KwE/2WOegajsAJWksalp/a27+ZyyT5zMBo7lFcE0HoCSNSS3r7xia/xnvzVDzIwPW26taDkBJGpsa1t8xNX/ovh3w5cS6nwaeN3DdvajhAJSkMSp9/R1b8z9jzyZr3Gi8efCqe1D6AShJY1Xy+tvn7X3/FHhOz/Vv5Nl0dxdMmcNvDl51D0o+ACVpzEpdf8f6yv9sf0jaPD4wfMn5lXoAStLYlbj+ttD8AX6ZtLk8OHzJ+ZV4AEpSC0pbf8d82f9c15E2n68NX3J+pR2AktSKktbfVl75n3EFaXP65vAl51fSAShJLSll/W3plf8Zi6TN63vDl5xfKQdgLsvA7cBR4AT9HNCzjBPAEeA2YKnHeZ9R2vwdjsgx9Pk3q9T55dBi8wcDAFDGAZjDIrAfWCN+0VlvrAL7gIVG5+9wRI4+z795pc4pVWuX/c/mWwDEH4A5LAL3E7/AbHYcJu8iVNv8HY7Ikfv8S5E6lxStvvI/ww8BEnsA5nIX8YvKrOOOxufvcESOnOdfitR5zKvlV/5nvIO0efo1wIB6z7VMnZe9V4GrG56/wxE5cp1/qVLnMQ+bf+eDpM319/su8IK+H2AE9lLnftpKdz/qVLXOX4qU6/yrzSLwIeA1PWz7C8BrgSd72HZuzwbekLiNr+QoZCMX9v0AI7AruoAEuzNso+b5S5FynH81uRj4I/pp/g/R7c8amj/AW4Ftidvo/SeBt/T9AMx/GemMIWrcyArpT2SUFWBHhm3UOn8pUo7zL9VQ66/N/4cW6L4m/eKEbZwCrgS+kaWidXhpd7qam9/2DNtIXUCkVrVy7tj8J72btOYP3b0lem3+YADQdE9EFyBV6lh0AQOw+U+6FvhXGbZzMMM2pjIAaJpD0QVIlRpkEQ9k8590JfBf6PZLqj/IsI0iRHwNJaforxNF778luq80Rc/D4ahprAI7iZc6j/X4Vb9Jl9N9SyHH/L84VNFeAdA0R4C7o4uQKrMfeDS6iJ74yn/S5XRXSl+WaXv3ZtpOEfpKoEOJfiVRwv5bAO4rYC4ORw3jEOO9FXDrt/c916V0d+zLtQ++RZ4Pbxcj9wE4tOjFpJT9t0D3Qye+HeBwnH+s0v1SZinNH9LndDab/6Tczf8U8FuDzmAAOQ/ACNGLSmn7bwm4le6tgZUC5udwRI4Vuhu23EIZt/49V+r8zvA9/0mX071dkXM/fJ0uVIxKrgMwSnT90Y8vqV451g9f+U/q45X/KeDvDziHwdTewKLrj358SfVKXT985T+pj1f+p4AHiL/rbS9qb2DR9Uc/vqR6pa4fNv8f6qv5Pwm8cMB5DKr2BhZdf/TjS6pXH807dXjZf3L84oDzGFztDSy6/ujHl1Sv6GZ/7vCV/+T47QHnEaL2BhZdf/TjS6pXdMM/e/jKf3J8gJG+73+22htYdP3Rjy+pXtFN/8zwlf/k+Chw0XBTiVN7A4uuP/rxJdUruvGfwlf+545PkOcHg6pQewOLrj/68SXVy+Y/O5t/RrU3sOj6ox9fUr1s/rOx+WdWewOLrj/68SXVy+a/eTb/HtTewKLrj358SfWy+W+Ozb8ntTew6PqjH19SvWz+09n8e1R7A4uuP/rxJdXL5r8xm3/Pam9g0fVHP76ketn812fzH0DtDSy6/ujHl1Qvm//52fwHUnsDG+IE6nPktgzcDhwFThQwv7GPE8AR4DZgaRPPj3S2vo9Pm//ksPmfI3WHRotuAKXsv0VgP7BWwJxaHavAPmBhynMlndHn8Wjznxw2//NI3anRohf9EvbfInB/AXNxdOMwhgBNdzH9HYPe239yHMDmf16pOzZa9GJfwv67q4B5OCbHHRs+Y2rdIvAR+jn2fOU/OXzlv4HUnRsteqGP3n/LeNm/xLEKXL3B86Z22fwn2fwDpe7gaNELffT+u72AOTjOP27Z4HlTm2z+k2z+wVJ3crToRT56/x0tYA6O849HNnje1B6b/ySbfwFSd3S06EU+ev+tFDAHx/nH8Q2eN7XF5j/J5l+I1J0d7TjxC/284zuNz3/sI8fzq/rZ/CfZ/AuSusOj1XwJPMcl4prnP/bhWwCy+U+y+c/ggugCKnAouoAEBzNso+b5j12O51f1WgQ+DNzUw7a/AOwGvtXDtvtyKd058VM9bPsg8Cbguz1se9RSU1e0JbqvXEW/2pt1rAI7G57/2Eeu51d1upjuFWkfx5Y3+Zkc3uQnQerOL8GdxC/4s473NT7/sY+cz6/q4mX/SV72L1jqE1CCBeA+4hf9zY5D5L1VbG3zH/vI/fyqHjb/STb/wqU+CaVYoPshlpIvh6/S3binj+ZQw/zHPvp8flU+m/8km38FUp+I0iwBt9L9RGsJ35Ffofs0+C0Mc2vY0uY/9jH086sy2fwn2fwrkfpkSFLLbP6TbP4VMQBI0nxs/pNs/pUxAEjS7Pps/l/A5m/zH4ABQJJmY/OfZPOvlAFAkjbP5j/J5l8xA4AkbY7Nf5LNv3IGAEmazuY/yeY/AgYASdqYzX+SzX8kDACStD6b/ySb/4gYACTp/Gz+k2z+I2MAkKRnsvlPsvmPkAFAkibZ/CfZ/EfKACBJP2Tzn2TzHzEDgCR1bP6TbP4jZwCQJJv/uWz+DTAASGqdzX+Szb8RBgBJLbP5T7L5N8QAIKlVFwD/lX6a3UPA5cNNJYvL6eruY38cwOZfHAOApFb9Jjb/M2z+DTIASGrRC4C/wuYPNv9mGQAktehfYvMHm3/TDACSWvQ5bP42/8YZACS15kLgu+Rrdn7af3J8HJt/FQwAklqzk7wN79PA9kFnkMbmL8AAIKk9f4f8ja+WEGDz1w8YACS15rfopwGWHgJs/ppgAJDUmg/TTxMsOQTY/PUMBgBJrfky/QWAEkOAzV/nZQCQ1JKLgVX6DQAlhQCbv9ZlAJDUkpfTf/MvJQTY/LUhA4Cklryd4QJAZAiw+WsqA4Cklvx7hg0AESHA5q9NGVsAWAZuB44CJxj+RD93nACOALcBSz3O+4zS5u9wpIw+zp+PBM1lqBBg89empR4QpVgE9gNrxC9a641VYB+w0Oj8HY6Ukev8eTxwDn2HAJu/ZpJ6UJRgEbif+AVqs+MweUNAbfN3OFJGyvmzHXg6uP6+QoDNXzNLPTBKcBfxi9Ks447G5+9wpIx5z5/rC6j9FPlDgM1fc0k9OKItU+dl71Xg6obn73CkjHnPn39YQO1nRq4QYPMfqQuiC6jAXurcT1uBPRm2U+v8pRTznj85QncuP0vXYFNCwKXAQeCnslQ06RPA36T72WQFcGGfbld0AQl2Z9hGzfOXUsxz/gzxTZxZpIQAm//IGQCm+9HoAhJclWEbNc9fSjHP+ZN6BeDPE//+fH4W+BiwbYa/uRy4j36a/8ex+RfBADDdLCdNaXK8/3cqwzakGs167D8X+GuJj/k64E8St3E+P0f3qnsza8KldE36FT3U8Qngb2HzL4IBQNM8EV2AFOTYjP/+cuLjfRf478Ab6ScEbObtAC/7N8QAoGkORRcgBTk447+f+v7/F+m+cfMUMSHA5t8YA4CmuYduUZJasgbcO+PfpL7/f+Ssfx46BNj8G2QA0DRHgLuji5AGth94dMa/Sb0CcPSc/z5UCLD5qzepN4qIFn0zjxL23wLdJ4Kj5+JwDDEOMd+tgJ9MfNyb1tnuNuBTPc31U8BDPW37AN7kp3mpB1G06MWolP23QPdDKasFzMnh6GOs0v3S5TzN/29kePyrNtj+JcAnC9hHmx3e4U9A+oEULfpEKm3/LQG30r01sFLA/ByOlLECPALcQtp7+K9LrOM4sGXKY9QSAmz++oHUgyladP3Rjy9puveSdp5+ZpOPU3oIsPlXxA8BSlK6nN8A2EifHwxM5Qf+KmMAkKR0ub8BsJESQ4DNX+dV+yXs6PqjLnEjtAAABkxJREFUH1/Sxi6ga8op5+mNMz7mVuCVwNcTHzfH8NP+lbowugBJqtyLgGcnbmOjtwCeD+yke5vhzH++PMNj5uC9/StmAJCkNKmX/79J90r+Miab/E7gZXQ/MlQiL/tXzgAgSWlSPwB4CV0IeE6GWobycXzlXz0DgCSlSb0C8KzToxZe9h8JvwUgSWlSA0BNvOw/ItPuPJVD6ifRh6hxI9H1Rz++pPVdBJxgvtsH18bmPzJeAZCk+f04Nn9VygAgSfNL/QBgDWz+I2UAkKT5jT0A2PxHzAAgSfMb+wcAbf4jZgCQpPntjC6gZzb/ETMASNL8Sr1LnzSVNwLq39h+kGcZ2AvsAq6iu4uZ2vUU8DhwGLiHzf+s7VgsRhcglaz2X7OL/qWtUvbfIrAfWCtgTo4yxyqwjza+FnfG54nf730OjZhvAWgzFul+8vNX8JjR+rYC7wQ+Rjsh4FPRBazjf9Gds9K6vBPgdLWn4Bz77y7gH2XYjtqxD/jV6CIG8CLgMbrwE+FJ4FHg6Fn/+WfAN07//7Wvv+qRAWC61gPAMvAwvvLXbNaAa+ka0tjdDLyn58f4Nt2+PHJ6HAUeofsVwY3Uvv6qR34IUNPsxeav2W0F9tB/YyzBb9AF5d0ZtvWXdK/kz27yjwJPZNi2NMErANO1fgXgKOP/rrP6cYSuMbZgAfgd4B+zubcDTgJfZrLJPwJ8DXg6Y121r7/qkQFgutYDwAqwLUchas4KsCO6iIHtpLtqtht44en/7X/zw/foHzn9z48B3x+gntrXX/XIADDdcWB7cA3zOg78SIZt1Dp/xcpx/ClN7euveuR7u9PV/N7bsQzbqHn+ipXj+JPUEwPAdIeiC0hwMMM2ap6/YuU4/iT1xLcAplui+xpc1Pd857UGXEP3vmOKWuevWLmOP6Wpff1Vj7wCMN0R4O7oIuawnzyLb63zV6xcx5+kio3hXtQLwH3E35d7s+MQeW/FWtv8HbEj9/Gn+aU+l1KSsRyAC3S3N10lfoFdb6wCt9PP4lvD/B2xo8/jT/NJfU41Yn4GYHZLdHc42033c7jR35E/QfdzrIeAe+n/1qulzV+xhj7+NJuxrb/KyAAgSePl+qt1+SFASZIaZACQJKlBBgBJkhpkAJAkqUEGAEmSGmQAkCSpQQYASZIaZACQJKlBBgBJkhpkAJAkqUEGAEmSGmQAkCSpQQYASZIaZACQJKlBBgBJkhpkAJAkqUEGAEmSGmQAkCSpQQYASZIaZACQJKlBBgBJkhpkAJAkqUEGAEmSGmQAkCSpQQYASZIaZACQJKlBBgBJkhpkAJAkqUEGAEmSGmQAkCSpQQYASZIaNEQAOJn499uzVCFJbdmR+Pffy1KFijVEAFhJ/PsXZKlCktryo4l/n7p2q3BDBIAnE//+NVmqkKS2pK6dqWu3xAHgVMI4AmwdvGpJqtdW4Chpa+9HB69agxriCsCXE//+auBXchQiSY34J8DOxG2krt0Sf5e0FHqK7sMoNw5duCRVaBfdh69T192/PXThGp8rgKfJEwJ+Fd8OkKTz2Qr8U/I0/zXgucOWr7H6HOkH5NmfCXg3sARsG3ISklSYbXRr4XtIf8//7PHpISehGBcO9DjvB34m07auBm7JtC1J0jO9P7oA9W/LQI9zOXAMuGSgx5MkzWcFuAq/Bjh6Q90K+C+Auwd6LEnS/PZj82/CUFcAAP468Bi+by9JpToOvAT48+hC1L8hP1F/Avg+3tlPkkr1G8D90UVoGENeAQC4CPgs8MqBH1eStLEHgVcBq9GFaBhDBwCAHwMeAn4k4LElSc/0beAVwNeiC9FwhvoQ4Nn+B/B2TJmSVIJV4G3Y/JsTdVe9x4D/A/wCMVchJEndTX/2AB+KLkTDi7yt7hfoEucbg+uQpBatAe8Afje6EMUo4dX3G4Hfx88ESNJQvk132f9j0YUoTgkBAOBFwAeBn4wuRJJG7kHgLfief/MiPgR4Pv8TuB74NbobUUiS8noK+Bd0X/Wz+auo996fBv4bP3w/6hpgIa4cSRqFFeB2ulf9B+nWWqmYtwDO5zLgF+m+MvgzlF2rJJXkFN1N195P9/aq9/bXM9TSVJ8H3ABcB7yU7jMDzwW241UCSe06SfcK/5t0b6V+Efgc8MnT/5u0rv8PVSFFmWOYrKYAAAAASUVORK5CYII=;" parent="1" vertex="1">
          <mxGeometry x="93.5" y="170" width="110" height="110" as="geometry" />
        </mxCell>
        <mxCell id="PzClLLOftk57QwvuD_dU-10" value="&lt;font style=&quot;font-size: 12px;&quot;&gt;&lt;b&gt;&lt;span style=&quot;color: rgb(0, 0, 0); font-family: Helvetica; font-style: normal; font-variant-ligatures: normal; font-variant-caps: normal; letter-spacing: normal; orphans: 2; text-indent: 0px; text-transform: none; widows: 2; word-spacing: 0px; -webkit-text-stroke-width: 0px; white-space: normal; background-color: rgb(251, 251, 251); text-decoration-thickness: initial; text-decoration-style: initial; text-decoration-color: initial; float: none; display: inline !important;&quot;&gt;Gather par&lt;span style=&quot;background-color: initial;&quot;&gt;ticipants’&amp;nbsp;&lt;/span&gt;demographic information and assess &lt;/span&gt;&lt;span style=&quot;forced-color-adjust: none; color: rgb(0, 0, 0); font-family: Helvetica; font-style: normal; font-variant-ligatures: normal; font-variant-caps: normal; letter-spacing: normal; orphans: 2; text-indent: 0px; text-transform: none; widows: 2; word-spacing: 0px; -webkit-text-stroke-width: 0px; white-space: normal; background-color: initial; text-decoration-thickness: initial; text-decoration-style: initial; text-decoration-color: initial;&quot;&gt;cognitive abilities (&lt;/span&gt;&lt;span style=&quot;forced-color-adjust: none; color: rgb(0, 0, 0); font-family: Helvetica; font-style: normal; font-variant-ligatures: normal; font-variant-caps: normal; letter-spacing: normal; orphans: 2; text-indent: 0px; text-transform: none; widows: 2; word-spacing: 0px; -webkit-text-stroke-width: 0px; white-space: normal; background-color: initial; text-decoration-thickness: initial; text-decoration-style: initial; text-decoration-color: initial;&quot;&gt;control variables)&lt;/span&gt;&lt;/b&gt;&lt;/font&gt;" style="text;whiteSpace=wrap;html=1;align=center;" parent="1" vertex="1">
          <mxGeometry x="50" y="280" width="197" height="30" as="geometry" />
        </mxCell>
        <mxCell id="PzClLLOftk57QwvuD_dU-11" value="" style="shape=image;verticalLabelPosition=bottom;labelBackgroundColor=default;verticalAlign=top;aspect=fixed;imageAspect=0;image=data:image/png,iVBORw0KGgoAAAANSUhEUgAAAgAAAAIACAYAAAD0eNT6AAAACXBIWXMAAA7DAAAOwwHHb6hkAAAAGXRFWHRTb2Z0d2FyZQB3d3cuaW5rc2NhcGUub3Jnm+48GgAAIABJREFUeJzt3Xm0XnV97/H3SUIgzIEwo4IMSRhCmKFAmYoyq5VBe0Far+KwLuD1qtD2tmhtLYrKULocuqwtSEWiXJBJBBLByhimhCkRLDMoYUgCSQjhnPvHN6eZznPynGTv/d3Ps9+vtZ4/XKv89mef5pzf59nD7weSJEmSJEmSJEmSJEmSJEmSJEmSJEmSJEmSJEmSJEmSJEmSJEmSJEmSJEmSJEmSJEmSJEmSJEmSJEmSJEmSJEmSJEmSJEmSJEmSJEmSJEmSJEmSJEmSJEmSJEmSJEmSJEmSJEmSJEmSJEmSJEmSJEmSJEmSJEmSJEmSJEmSJEmSJEmSJEmSJEmSJEmSJEmSJEmSJEmSJEmSJEmSJEmSJEmSJEmSJEmSJEmSJEmSJEmSJEmSJEmSJEmSJEmSJEmSJEmSJEmSJEmS1FJPdoCKDAfWX/wZnpxFklRP7wBzFn/eSc5Sum4rAMOA3YCDgV2AscA4YExmKElSx5kFPL748wjwK2Aa0JuYqVDdUADWBI4FPgIcCmycG0eS1KVeAaYAVwDXAW/lxlk9nVwAxgJnERP/6OQskqRmeY0oAhcCM5OzrJJOLAC7AX8FnEBc8pckKUsvMAn4GnGLoGN0UgEYDXwZ+F848UuS6qUP+BHwf4CXk7O0pVOeiP8L4FriHn8nlRZJUjP0EFeo/wL4A/BQbpyVq/tkuh7wXeDPsoNIkjQEPwP+JzA7O0grdS4AuwBXATtkB5EkaRXMBP6UeI2wdupaAPYFrsdX+iRJne014HjgP7ODLK+OD9MdA0zGyV+S1PlGAzcRc1ut1O0KwKHADcBa2UEkSSrQQmLRupuzg/SrUwGYANwGbJgdRJKkEswhvujenx0E6lMAtgAeADbLDiJJUoleBPYAXsoOUodnAIYBl+LkL0nqflsAP6YG6/CkBwDOBT6eHUKSpIpsQ2w3fFtmiOxbADsTl/7XSM4hSVKVFgF7krh/QOYtgB7gEpz8JUnNMwL4ZxK/iGcWgFOBQxKPL0lSpgNJXOo+q3kMBx7DZX4lSc32JDCOuCVQqawrAB/ByV+SpO2AEzMOnHUFYDqx2U8V5gC/JK44vESH7NMsSarcJsDmwHjgfcD6FR13OrEYXtfbD+ir4DMFOBIYWc1pSZK6yJrAUcCvqGbO2qeSs0r2z5T7Q3wSOLqys5EkdbtjgN9R7tx1SWVnk2Qk8Arlfut3F0FJUtHGEHNMWfPXy3T5a/EHUd4P7xq6/IcnSUq1BjHXlDWPHVDdqVTvXMr5oT1CdQ9rSJKaa13gIcqZy/6mwvOoXBmXTxYA21d5EpKkRtseeIvi57PJVZ5ElXqAuRT/A/t2lSchSRJwIcXPZ3PI36OnFFtT/A/rTeLBDEmSqjQGmEfx89pWVZ1AlSsBjithzF8Cs0oYV5KkwcwCbi5h3LEljDmgKgvAtiWMeU0JY0qS1I6rSxjzvSWMOaAqC8AGJYx5RwljSpLUjt+UMGYZc+WAqiwA65Uw5gsljClJUjueL2HMMubKAVVZANYteLw5wBsFjylJUrveJOaiIlW2pk2VBWBEwePNL3g8SZKGal7B4xU9V7ZUZQGQJEk1YQGQJKmBLACSJDWQBUCSpAayAEiS1EAWAEmSGsgCIElSA1kAJElqIAuAJEkNZAGQJKmBLACSJDWQBUCSpAayAEiS1EAWAEmSGsgCIElSA1kAJElqIAuAJEkNZAGQJKmBLACSJDWQBUCSpAayAEiS1EAWAEmSGsgCIElSA1kAJElqIAuAJEkNZAGQJKmBLACSJDWQBUCSpAayAEiS1EAWAEmSGsgCIElSA43IDiA1wPrAHsCewG7AxsBoYENgTWAO8Nriz9PAfYs/M4HehLySGsACIJVjO+Bk4CRgAtCzCmPMBX4B/AS4AZhfWDpJqtBFQF+Bn5eqjS+t1AjgNOBeiv233kdcJfg3YKeqTkZSW16k2N/1i6sK7jMA0uobBpwIPEJM0nuVcIz1iHIxHbiWuKUgSavMAiCtngOAR4ErgR0rON4w4FjiKsNlwFYVHFNSF7IASKtmFHAecBswNuH4w4BTiAcFv7w4jyS1zQIgDd144CHgbGB4cpa1gXOJqxAnJGeR1EEsANLQ7A/cDuyQHWQ52wCTgF8BE1OTSOoIFgCpfScDU4Ax2UEGcTAwFfgusElyFkk1ZgGQ2nMscDmxcE/dDQc+RTwfcDadkVlSxSwA0srtDVxB/v3+odqQeFBxOvGaoiT9NwuANLjtgOuBdbKDrIYdiNcUryfnjQVJNWQBkFobRizs0y330o8mrgZ8j3o/xyCpAhYAqbXPAwdmhyjYGsDpwAzgLDrvtoakglgApIGNBf4uO0SJNgIuJN4YODg5i6QEFgBpYN+gGavrTSTWDrgWeG9uFElVsgBIK5oIHJcdomLHAo8Ru3aul5xFUgUsANKK/hboyQ6RYCRwJvA48ZyAfx+kLuYvuLSsHYEPZodItiXxpsBvgH2Ss0gqiQVAWtZHaea3/4HsB9xFrCHw7uQskgpmAZCWVcWOer3EboJXAZcSmwu9VMFxV0UPsYrgI8BfAmvlxpHUiS4C+gr81PUPpjrXThT7b3T5zyvAV4HNBzh2D/BHwNVEQSgzx+p8ngT+dCg/VKnLvUixv2MXVxu/GhYA1d1ZlDdx3gBs1maOg4D7SsxSxOdWYNc2z0fqZh1bALwFIC2xZ0njXgN8APh9m//3vyY2IDqN+hbdw4AHiVsYmyZnkbQKLADSEruXMOY9wMnA20P873qJyXUc8E1gYcG5ijAMOJV4bfBMYplhSVqBtwBUZ6OARRT7b7SXWFSoCDsSq/VlX/of7PMo8P6CzlfqFN4CkDrcFhS/Mc6txGXyIswkVic8klixr47GA78gisoOyVkkrYQFQAqjSxjz2hLGvAmYAHwKmFXC+EU4lnht8CJgg+QsklqwAEhhwxLGfKiEMSFuVXyf+Mb9HeCdko6zOtYgnguYAXwC/9ZIteMvpRTKKAAvlzDm0mYBnyUeXpxc8rFW1WbAvwD3Eq83SqoJC4AUyniCvaon96cDhwPHEwv11NEexIqH1wLbJmeRhAVA6ibXErcFPgfMSc7SSv/zAefhtsNSKguA1F3eJh6+G0c8J9CbG2dAo4CzibcZPoabL0kpLABSd3qReFNgH2Jb3zraCvh34G5g/+QsUuNYAKTudh/x8N1JwNPJWVrZmygplzLwRkmSSmABkLpfHzCJ2O3wK8D83DgD6iGWFX4C+DJuOyyVzgIgNcc8YnLdEbiMKAZ1sw5wLvFmw4nJWaSuZgGQmuc54uG7QyluqeKibQ9cSSynPCE5i9SVLABSc91GbIF8Gu1vVVy1w4jnGL4HbJKcReoqFgCp2ZbedvjrwFu5cQY0AjidWFb4bGBkbhypO1gAJAG8DpwD7Eo8MFhHo4kFhKYBRydnkTqeBUDS0n5LvDJ4BLFiXx2NBa4HbiZWPpS0CiwAkgZyC7HJUJ23Hf4TYsfFi4D1k7NIHccCIKmVt4nlhMcCF1PvbYefBM4ChufGkTqHBUDSyrxKTK67AjclZ2llDHAhcA9uOyy1xQIgqV2PAUcS2w7/LjlLK0tvO7xNbhSp3iwAkoZq6W2H5yZnaWXpbYfXTc4i1ZIFQNKqWEj9tx1em1g34HHcdlhagQVA0up4gXhTYF/gjuQsrfRvO3wXsF9yFqk2LACSijAVOJBYQ+CZ5Cyt7MOSbYc3S84ipbMASCrK8tsOL8iNM6BhxLbDTxI7I66ZmkZKZAGQVLQ3WXbb4Trq33b4Ydx2WA1lAZBUlmeJh+8OI1bsq6P+bYdvIdY5kBrDAiCpbFOI9/NPA/6QnKWVw4H7iW2HxyRnkSphAZBUhf5th8cS2w4vzI0zoKW3HT5r8f+WupYFQFKVlt52+PrkLK1sRCwrPJ1Y+VDqShYASRlmEqv1HQE8mpyllXHAjcTKh+9NziIVzgIgKdMtwERiWeHZyVlaOZbYB8Fth9VVLACSsr1NTK7bUd9th0cS2w4/Tjwn4N9OdTz/EUuqi1eIh+/2Jnb0q6MtiDcF7iFWPpQ6lgVAUt08ABwCfIT6Liu8J1FSLgM2T84irRILgKQ66gN+QjyIdw713Ha4BziFeD7g9OQs0pBZACTV2Xxi3YCdgR8TxaBuNiRuC1yNVwPUQSwAkjrBs8CfEdsO35mcpZUPAPcRbzVItWcBkNRJ7gUOIJYVfik5y0C2BH4NHJUdRFoZC4CkTtPHkmWFv0H9lhVel7gdcEJ2EGkwFgBJnWoOcDbxfMCk5CzLGwlcTmwyJNWSBUBSp3sCOImYbKclZ1naSOBnuM2wasoCIKlbTCbezz8DeDU5S78NiNsB62UHkZZnAZDUTRYBlwDbE8sKL8qNA8RGQt/MDiEtzwIgqRu9RiwrvAtwQ3IWgE/i1sKqGQuApG42AzgG+BDwZGKOHmKxoFGJGaRlWAAkNcHVwHhi2+E5SRneDXwi6djSCiwAkpqiDtsO/yWwVsJxpRVYACQ1zSzi+YD9gDsqPvYWwJ9XfExpQBYASU01lVhW+HjgqQqP+6kKjyW1ZAGQ1HTXEqsJngO8UcHxJhLPI0ipLACSBPOIbYfHA5dR/rbD7hOgdBYASVriOeBjwCHAb0s8zodLHFtqiwVAklZ0O7A78NOSxt8FWKeksaW2WAAkaWBvAh8Frith7OHEswBSGguAJLW2iHht7+USxt6zhDGltlkAJGlwr1DOZj47lzCm1DYLgCSt3BUljDmmhDGltlkAJGnlngEeK3jMDQseTxoSC4Aktafo1wJHFzyeNCQWAElqz9yCx3NrYKWyAEhSe4q+Zz+74PGkIbEASNLKDSMWBirSawWPJw2JBUCSVm5vYNOCx7QAKJUFQJJW7vQSxnyxhDGltlkAJGlw+xMbBBXtgRLGlNpmAZCk1rYlFgEaUcLY95cwptQ2C4AkDewA4Dbg3SWM/SYwo4RxpbZZACRpWRsCFxCT/7tKOsbtwDsljS21pYzLWpLUiYYBpwDnU/wT/8srY28BaUgsAJIEhwAXArtVcKy3gGsqOI40KG8BSGqybYGfAlOoZvIH+AWuAqga8AqApCZaG/gScDawVsXH/nbFx5MGZAGQ1CQ9wAnANynn6f6VmUI8ACilswBIaoq9iPv8ByRm+GrisaVl+AyApG63JfDvwD3kTv7XE1cApFrwCoCkbjUS+Azwd8D6yVlmA59OziAtwwIgqRsdR1zuf292kMXOAJ7LDiEtzQIgqZtMICb+Q7ODLOXHwGXZIaTl+QyApG6wEXARscFOnSb/XwMfzw4hDcQrAJI62Qhigv0HYExyluU9BnwQWJAdRBqIBUBSpzqSWFRnfHaQATxK5Hs1O4jUircAJHWaHYArgRup5+R/B3Aw8Gx2EGkwFgBJnWIDYgW/h4ETk7O0chlwGDArO4i0Mt4CkFR3/dv0fgPYLDlLK68T+wp8PzuI1C4LgKQ625d4un/f7CCDuAE4HXg+O4g0FN4CkFRHWwOXAndS38n/CeAk4Bic/NWBvAIgqU7WJlbN+7/AuslZWnmTeBbhPHzFTx3MAiCpDvq36T0feE9yllb6gB8BXwJeSs4irTYLgKRsexLL9x6YHWQQ9wJnEbckpK7gMwCSsmwBfA+4m/pO/s8DpxHPITj5q6t4BUBS1dYAPks9tultZT5wMbHE8NzkLFIpLACSqnQccAGwXXaQQVwHnAn8V3YQqUzeApBUhXHE+/I/p76T/wPEEr7H4eSvBrAASCrTaGIhn+nAUclZWnkF+BywN3B7chapMt4CkFSG/m16/x7YJDlLK28D3wH+FpidnEWqnAVAUtEOI17r2zU7yCBuIV7rezQ7iJTFWwCSirI9sU3vrdR38p8JHAscgZO/Gs4rAJJW1zrAF4FzgDWTs7TyOrF07wXAwuQsUi1YACStqh7gVODrwObJWVrpBS4HvgD8ITmLVCsWAEmrYh/i6f79soMMYgrxdP+07CBSHfkMgKSh2IrYpvcu6jv5P0ss33sYTv5SS14BkNSOUcTqeG7TK3UJC4CklTmOWBd/m+QcrfQBPyXu8z+TnEXqGBYASa3sQbzPf1B2kEFMJd7nvyM7iNRpfAZA0vI2Jh7wu4f6Tv4vAJ8itul18pdWgVcAJPXr36b3K8AGyVlaWQh8l3gWwW16pdVgAZAE8CfEt/6dsoMMwm16pQJ5C0BqtrHA9cDN1Hfyfww4ErfplQplAZCaaTTxutw04OjkLK28SizksytwU3IWqet4C0BqlmHAKcD5wKbJWVrp36b3XGINf0klsABIzXEo8VrfhOwgg7iF+Nb/SHYQqdt5C0Dqfu8ilu+dTH0n/5nEPf4jcPKXKuEVAKl79W/TezawVnKWVvq36b0QeCs5i9QoFgCp+/QAJwDfIr7911H/Nr1fBH6fnEVqJAuA1F32Jt7n3z87yCBuI5bvfSg7iNRkPgMgdYetgR8Bd1Pfyf8p4ETgEJz8pXReAZDCvBLGrGLb3P5tev8aWK+C462KecRrh27TK9WIBUAKr5Uw5pbAgyWM2+9EYmJ9T4nHWB19xH3+c4Dnk7NIWo63AKRQxoIzB5QwJsDuxH30K6nv5H8fsZPgqTj5S7VkAZBCGVcATgaGFzjepsD3gXuBPy5w3CK9AJxGPIz4m+QskgZhAZDCC8AbBY+5HfENeHWtAXyeWCznkxRbKoqyAPhHYnOhS4nL/5JqzAIghV7ggRLG/RYwbjX++2OA6YvH2aCQRMW7CtgZ+CuKL1GSSmIBkJa4v4QxNyLWt99uiP/dOOBG4DriW3UdTQMOBz4M/C45i6QhsgBIS0wtadytgHuAjxKr9A1mI+ACYnI9sqQ8q2sW8FlgD2J/AUka1EXEfcGiPi9VG18NsDGwkGL/nS7/eYhYBW8iSwr4OsROfRcBc0s+/up8FhJr9o9epZ+u1J1epNjfs4urCu46ANISrxCX648q8RgTiEm035tEAai7m4D/DTyWHURSMbwFIC1rUsXHq/vk/1vgJOJ2hJO/1EUsANKyrgJmZ4eogdnAF4BdqL4USaqABUBa1mzgkuwQiXqBy4g3D75F3PeX1IUsANKKvk08jNc0dxPLF38M+H1yFkklswBIK3oV+KfsEBV6mli2eD/gruQskipiAZAG9g/EA3DdbB7wdeI+/5XJWSRVzAIgDWwesanNO9lBSnIdsBOxVa/L90oNZAGQWruT7rsVMJW4z38ccelfUkNZAKTBfQm4OTtEAWYBnyPu89+RnEVSDVgApMG9DZxALOHbid4mlhbdjlhquFtvaUgaIguAtHJzgGOBZ7ODDNHVwHhi74E5yVkk1YwFQGrPc8Tl8weyg7ThceBo4EPAk8lZJNWUBUBq3wvAHwM3Zgdp4TXiPv+u1DejpJqwAEhD8wbwAeACYtncOlhELF+8PXGff1FuHEmdwAIgDd3bwOeBA4EZyVkmA3sAZxArGEpSWywA0qq7k5h8zycWDqrSw8SViMOB6RUfW1IXsABIq2cesVbANsBXKP9p+4eJFQonAj8v+ViSupgFQCrGy8CXifvwXwLuK3DsN4D/AI4BJgCX4vv8klbTiOwAUpd5mbglcD5RBk4inhXYA9iszTEWAY8RJeIGYt3++YUnldRoFgCpPE8AX1vqf28N7AaMAUYv/qxJ3DZ4bfHnaeBBnPAllcwCIFXnucUfSUrnMwCSJDWQBUCSpAayAEiS1EAWAEmSGsgCIElSA1kAJElqIAuAJEkNZAGQJKmBLACSJDWQBUCSpAayAEiS1EAWAEmSGsgCIElSA1kAJElqIAuAJEkNZAGQJKmBLACSJDWQBUCSpAayAEiS1EAWAEmSGsgCIElSA1kAJElqIAuAJEkNZAGQJKmBLACSJDWQBUCSpAayAEiS1EAWAEmSGsgCIElSA1kAJElqIAuAJEkNVGUBWFDweKOBnoLHlCSpXT3EXFSk+QWP11KVBeCNgscbCWxc8JiSJLVrDLBmwWPOLXi8lqosAHNKGHObEsaUJKkd25QwZlcWgFdKGPP9JYwpSVI7ypiDZpUw5oCqLAAzSxjzAyWMKUlSOz5YwpgzShgz3QZAX8GfXmDvKk9CkiRi7uml+Hlt/SpPokrPU/wPa3KlZyBJEkyh+PnsuUrPoGI/ofgfWB9wcpUnIUlqtI9Qzlx2RZUnUbVPU84PbR6wV4XnIUlqponEa+1lzGWnV3gelduRcn5ofcAzwPjqTkWS1DDjibmmrHls++pOJcc0yvvhzQGOq+5UJEkN8X7gNcqbvx6u7lTyfJHyfoB9wDvAD4F3VXVCkqSu9W7g34i5pcy56wsVnU+qLYFFlPuD7CPWU/4BcUVgVCVnJknqBqOIueNfibmk7PlqETE3ViprM51JwAkVHm8B8F/Ai5SzIqEkqfNtDGwBbAusVeFxJwEnVXg8IK8ATATuTzy+JEl10Ee8xXZ/1QeucingpT0I3Jh0bEmS6uJaEiZ/yP0Gvgtx0mskZpAkKcsi4tv/QxkHH55x0MX+AIwG9k/MIElSlm8Dl2UdPPse/HrAY8BWyTkkSarSc8BOwNysAFnPAPSbC/wP4v1KSZKaoBf4cxInf8i9BdDvaaKIHJKcQ5KkKpxLLC6UKvsWQL/hxJOQR2UHkSSpRDcQiwz1ZgepSwEAWBu4Gfij7CCSJJXgXuAwYjfBdHUqAABjgF8D47KDSJJUoMeBg4BZ2UH6ZT8EuLxZwIHAXdlBJEkqyHTgcGo0+UP9CgDEWv1HADdlB5EkaTVNIb7YvpAdZHl1eAtgIAuBK4l1AvalfrcqJEkaTB9wIfG637zcKAPrhIn1eOCHwEbZQSRJasMc4BPELn+1VdcrAEubQSyVuCkwgc4oLZKkZroOOAa4MzvIynTaZHo4cUlll+wgkiQt5WHgc8Ct2UHaVceHAAdzK3EV4HjgnuQskiRNA04DJtJBkz903hWA5R1M/OA/DKyfnEWS1AxzgZ8BlwK/Ih746zidXgD6jSLuuRxOrLK0Y24cSVKX+S0wefHnOmr6ZP9QdEsBWN6WwM7AWGJVwc2BDYirBJ3w4KMkqVrDiJ1pXye+4b9ErN43g7i//3xeNEmSJEmSJEmSJEmSJEmSJEmSJEmSJEmSJEmSJEmSJEmSJEmSJEmSJEmSJEmSlKQnO4AKNRrYERgHbA6sC6yz+CNJQ/Hm4s8bwEvA48AM4PXMUCqOBaCzjQKOAQ4HDiMmf0kq0wxgCnALcAMwPzeOVpUFoDPtCXwGOAHYIDmLpOaaDUwCvgPcn5xFQ2QB6CwHAH8DvD87iCQt5xfAV4E7soOoPRaAzrA58A3gFPz/maR6mwScAfw+O4gG52RSfycB3wM2zA4iSW16Hfgk8NPsIGpteHYAtTQS+Cfg68BayVkkaSjWIr68bEI8LPhObhwNxCsA9bQO8DO81y+p800GPgTMyQ6iZVkA6mc08Etgr+wgklSQqcD7gNeyg2gJC0C9jCIm/wOzg0hSwe4m1ix5MzuIwrDsAPpvw4Cf4OQvqTvtC/wHzju14UOA9fHXwKezQ0hSicYCbwH/mR1E3gKoi4OIB2VGZAeRpJItAg4BfpOco/EsAPlGAg8C47ODSFJFZgITiKsBSuItgHznACdnh5CkCm1M7DLoVYBEXgHItRHwFLBecg5Jqtpc4D34amAan8bMdRZO/pKaaT3gzOwQTeYVgDyjgOeIqwCS1ESvAlsD87ODNJFXAPJ8ECd/Sc22EXB8doimsgDkOTU7gCTVgH8Lk3gLIMe6xKWvNSo41mygt4LjSOouw4H1KzjOQuJKgEsEqxGOBPpK+vQCk4idBEdVdUKSutLawFHE7qS9lPd3y51P1RjnUc4v0SzgsArPQ1JzHAG8Qjl/u86r8DykVNdT/C/QHGJlLUkqy0RiAZ+i/35dX+VJSJmepPhfoNMrPQNJTfVZiv/79WSlZyAlGUFshlHkL89TuJGQpGqMAJ6h2L9hi/BvWOV8DbB661L8HgzXEL9AklS2RcDPCx5zOK6KWjkLQPXK+Ef+cAljSlIrZfzNsQBUzAJQvZEljPlGCWNKUitzShhzzRLG1CAsANUrY7GLLUoYU5Ja2bKEMf0iUzELQPXmljDmwSWMKUmtHFrCmGVcVZBqpYcoAUU+QTsfeFeVJyGpsbYBFlDs37C5uDS9GmIqxb9HOwl/gSSVqwf4fxT/92tqlSchZbqc4n+B+oCvYgmQVI4e4B8p52/X5RWeh5TqTMr5Jeq/EuDtAElFeg9wFeX93TqzulNRP78t5tgVmFbi+AuAm4DbgRdxkSBJQzeCeMPoEOB9lPua3q64nknlLAA5eoAXgM2zg0hSsheArYkrAaqQrwHm6AOuyA4hSTVwBU7+KSwAeS7LDiBJNeDfwiQWgDz3A3dlh5CkRHcBD2aHaCoLQK6vZQeQpER/nx2gyXwIMFcPsQDGHtlBJKliU4F98P5/Gq8A5OoDPgP0ZgeRpAr1smQ9FCWxAOS7B/hhdghJqtAPgDuzQzSdtwDqYV3ictjY7CCSVLIngD1x9790XgGohzeAk4hd/SSpW70FnIyTfy1YAOpjGvBxfB5AUnfqBT5GvAKtGhieHUDLeBh4GTgmO4gkFezzxL1/1YQFoH6mArOAI/EZDUmdrw/4InBBdhAtywJQT/cCM4HjiB25JKkTLQBOBf4lO4hW5DfMetsduBLYPjuIJA3RU8QDf/ck51ALPgRYbw8Qr8v8ABfMkNQZeolv/Lvh5F9rXgHoHPsDl+CywZLqaypwBm501hG8AtA57gT2Ao4H7k7OIklLu4t4ZmkfnPw7hlcAOtfuxDu1JwNbJGeR1DwvAlcAl+KWvh3JAtD5eoBdgMOAfYnlhMcC62SGktRV3gRmLP7cBUwGHsFnkzqaBaB7rU/sMbBWdhBJHWsBMHfxR5IkSZIkSZIkSZIkSZIkSZIkSZIkSZIkSZIkSZIkSZIkSZIkSZIDauZdAAAAqklEQVQkSZIkSZIkSZIkSZIkSZIkSZIkSZIkSZIkSZIkSZIkSZIkSZIkSZIkSZIkSZIkSZIkSZIkSZIkSZIkSZIkSZIkSZIkSZIkSZIkSZIkSZIkSZIkSZIkSZIkSZIkSZIkSZIkSZIkSZIkSZIkSZIkSZIkSZIkSZIkSZIkSZIkSZIkSZIkSZIkSZIkSZIkSZIkSZIkSZIkSZIkSZIkSZIkSZIkSZLUHP8flckiJ8hWEKoAAAAASUVORK5CYII=;" parent="1" vertex="1">
          <mxGeometry x="290" y="235" width="120" height="120" as="geometry" />
        </mxCell>
        <mxCell id="PzClLLOftk57QwvuD_dU-12" value="&lt;b style=&quot;&quot;&gt;&lt;span style=&quot;color: rgb(0, 0, 0); font-family: Helvetica; font-style: normal; font-variant-ligatures: normal; font-variant-caps: normal; letter-spacing: normal; orphans: 2; text-indent: 0px; text-transform: none; widows: 2; word-spacing: 0px; -webkit-text-stroke-width: 0px; white-space: normal; background-color: rgb(251, 251, 251); text-decoration-thickness: initial; text-decoration-style: initial; text-decoration-color: initial; float: none; display: inline !important;&quot;&gt;Mood induction using film clips w&lt;/span&gt;&lt;span style=&quot;background-color: initial;&quot;&gt;ith different&amp;nbsp;&lt;/span&gt;&lt;span style=&quot;background-color: initial;&quot;&gt;emotional-induced content for three randomly assigned groups&lt;/span&gt;&lt;/b&gt;" style="text;whiteSpace=wrap;html=1;align=center;" parent="1" vertex="1">
          <mxGeometry x="260" y="360" width="180" height="40" as="geometry" />
        </mxCell>
        <mxCell id="PzClLLOftk57QwvuD_dU-13" value="&lt;span style=&quot;&quot;&gt;&lt;b&gt;&lt;font style=&quot;font-size: 12px;&quot;&gt;Ask participants to complete incompleteness shape drawing task&lt;/font&gt;&lt;/b&gt;&lt;/span&gt;" style="text;whiteSpace=wrap;html=1;align=center;" parent="1" vertex="1">
          <mxGeometry x="450" y="470" width="150" height="30" as="geometry" />
        </mxCell>
        <mxCell id="PzClLLOftk57QwvuD_dU-15" value="" style="shape=image;verticalLabelPosition=bottom;labelBackgroundColor=default;verticalAlign=top;aspect=fixed;imageAspect=0;image=data:image/png,iVBORw0KGgoAAAANSUhEUgAAAgAAAAIACAYAAAD0eNT6AAAABHNCSVQICAgIfAhkiAAAAAlwSFlzAAAOxAAADsQBlSsOGwAAABl0RVh0U29mdHdhcmUAd3d3Lmlua3NjYXBlLm9yZ5vuPBoAACAASURBVHic7d13uHVFefD/71No8gBWBIwKitItEAWF1xhL7DEWRGOLPbaYGBOTNyY8JJpgJSqJLcmr0RglMURFQEWwgCYqiArYFbGLIFKU8pTfH3P27zn7cM4+e++ZWTNrzfdzXfcFJnrWPTNrrXvW7FVAkiRJkiRJkiRJkiRJkiRJkiRJkiRJkiRJkiRJkiRJkiRJkiRJkiRJkiRJkiRJkiQttaZ0Ag3YWjoBqWGx57jY49dzrKq1tnQCkiSpe04AJElqkBMASZIa5ARAkqQGOQGQJKlBTgAkSWqQEwBJkhrkBECSpAY5AZAkqUFOACRJapATAEmSGuQEQJKkBjkBkCSpQU4AJElqkBMASZIkSZIkSZIkSZIkSZIkSZIkSZIkSZIkSZIkSZIkSZIkSZIkSZIkSZIkSZIkSZIkSZKANQW2eQjwTOD+wN7AzgVykCTldw1wMXAG8E/ABUWz0ZguJwA7ACcAzwHWdrhdSVJ5m4E3Ay8Gri+ci+huArADcBrwmx1tT5JUpzOBh+AkoLh1HW3nRODojrYlSarXPsDNCBeFKqiLFYBDgPNx2V+SFGwG7gpcWDqRlnVRlJ/Z0XYkSf2wDnhG6SRa10VhfkAH25Ak9csDSyfQui5+ArgK2NDBdiRJ/XEVsGvpJFrWxQRgawfbkCT1T4l30WiBv81LktQgJwCSJDXICYAkSQ1yAiBJUoOcAEiS1CAnAJIkNcgJgCRJDVpfOoEp+JyoJNXJ97z0mCsAkiQ1yAmAJEkNcgIgSVKDnABIktQgJwCSJDXICYAkSQ1yAiBJUoOcAEiS1CAnAJIkNcgJgCRJDXICIElSg5wASJLUICcAkiQ1yAmAJEkNcgIgSVKDnABIktQgJwCSJDXICYAkSQ1yAiBJUoOcAEiS1CAnAJIkNcgJgCRJDXICIElSg5wASJLUICcAkiQ1aH3pBAbgWuAq4AfARcD/AB8CvlUyqTnsCzwMOAI4ELgNsAuwlW3tu5Bt7ft2mTTndidC+w5n9fadAnynTJpzG3r7hr5/jtp3OHAQsBehfTuWTEqKtTUyardS3p8GjqHuVZZ1wBOA/2X2cTkHeBz1t+93gc8yX/uOxvaVNGrfkPfPJxAmLUM7/w3l/K5IQ99BVsv/POCoYtmt7D7A+cSPz7nAkR3nPo3fAL5IfPs+D9y749ynYfum3z9rbN+0x1/thn5+V6Sh7yDTtGET8ArCjL+09cDxwGbix2Zx+15OPe17Fenb99fYvi6sB15J+vb9DfW0b5bjr3ZDP78r0tB3kFna8mFg1zJpArCB8PtvqhPr0jgd25eT7et/+z64TF6tnP/62D5FGvoOMmt7Pk24uadrOwOfnCPfWeMcyrRvVyb/lpqyfRs6atNitq/f++e8x1/tYsdDAzf0HWSeNp1Bt09gbAecNWeu88RH6b59n8jQjpXiw3S7nNxC+z6euA2T4iN0v3+eOWeutYsdCw3c0HeQedt1Qoc5nhiR57zx2k5aFvxjxnasFK/upGVBifa9ppOWBf+QsR01tO+NEXnWLnYcNHBD30Fi2va0DvJ7cmSOMfF7+ZvHUwq1bSvw1IG37/fyN2/w7Ys9/moXOwYauKHvIDFtu4bwApdcDgB+FZljbPv2zdi+AwkvYirVvquBOwy8fXfM2L4DBt6+/Yk//moXOwYauKHvILHt+ziwJkNea4FPJcgvNs4aePvOHHj7hj5+OduX4qbb2g29fYo09B0kxUnoWRnyen6i3FLE0zO074UVtGsUOX7Kqal9OcbvBRW0K2f7npcot9oNvX2KNPQdJMVB/nPglglz2h34RaLcUsTlwC0Stm8P4MoK2jWKy4CbD7h9qcfv1gx7/0x5/NVu6O1TpKHvIKlOQm9ImNObEuaVKlI+9fCWCtqzNF438PalHL83V9CenO1L+dRG7YbePkUa+g6S6kC/njQ3BO638LdKn1CXxnWkuSFwf+CGCtpj++azXwPtS3n81W7o7VOkoe8gKU9CJyXI578S55Qy/j1B+/67gnasFO8eePtSjN/JFbQjZ/velzin2g29fYo09B3kAOAzpDnYtwB3jcjl0IW/kSKXcwhXoweS7hWtm4FDItp3WML2nU24WjuI+T43u1L7Dq6ofaPxS9m+msavtvbdPWH7ziGcW2oX204NXAs7yAbgC6Q58E+OyOP9iXL4POHd5SO7kObTrFuB/4xo36wfUlkpPgfcZNHf3RX4UqK//R8VtG/o41dr+1Kt3py7pH01i22rBq6VHWRfwotFYtu7hXClNKtfJ83Vx5XAPsv8/TsTXuyTon13m6N990yw7VH79s7cvnlWcVK2b+jjV2P7Uq1uXEXel0ulFtteDVxLO8gfkeYkd8oc2z410bZfOGEbf5xoG++fo32nJ9r28yds4yWJtvHfBdv3gg7aV3L8JrWv5P75oUTb/oM5tl1SbHs1cC3tIOuBC0hzIjhihu3eO9E2LyJ8uWwl2wFfS7Ste87QviMTbfNCJn8Fbnvb1+v2ldo/75Vom6sdfzWKbbMGrrUd5GGkORl8ZIZtfizRNh80xbYekWhbp83Qvo8n2uYDp9jWbyfa1qkDb1+t41di/+zy+KtNbJs1cC3uIB8lzQnhoVNsK9UJ7/QZ2tflCe93Em1rloI877fbl8ZvDbx9tY5fHyfEsxx/NYlttwauxR3kHqS5IeirdLckf/gM7evqJ4ftga8n2tYsS7q2z/ZN075Sx19NYtutgWt1BzmFNCeGP5ywjRcn2sYH52hfFzcd/kmibcxzU9dpibY96aY125evfan2z0k35ZU8/moR23YNXKs7SKrHgq5m+VeUpnzs6dA52pdqlWOlx572B36ZqH2lH1uzfd23L+X+ecdl/n7p468Wse3XwLW8g6R6McgFwG6L/m7KF5+8L6J9H0iUw3mElyktbt+QXsxzHjd+cY3ty9++VPvnF7jx/lnD8VeD2PZr4FreQe5GuleDfobw2tPUr66NefVpylcPf5rw6tODgc8mbF/Mq3lzvFr5YMKbCIfcvlrGL+WreUf750GJ2xdz/NUgtg80cK3vIP9JmpNFjnhPgvbV/PGhFB/nqfnjNbZvdak/zpMyUhx/pcX2gQau9R3kjoRPjZY+2SyNWj9/mrJ9y/12a/vaat+dK25fiuOvtNh+0MC5g8AbKX/CWRqvS9i+f6igPUvjNQnb948VtMf2ze/ECtqzNFIefyXF9oMGzh0EbgVcQfmTziguB26RsH27A7+ooF2juAy4ecL23dr29bp9uzPs46+k2L7QwLmDBL9P+RPPKJ6eoX3Pq6Bdo/i9DO17fgXtsn3ze24F7RpFjuOvlNi+0MC5gwRrSPeK0pg4ayGX1NYCn6ygfR/L2L5P2b5et6+G/fPMTO0rJbY/NHDuINvsR5qXo8wb15D3xqP9gV8VbN/V5P2W+gG2r9ft26+C9qW4sbEmsX2igXMHGfckyp2AntpB+55cqG1bgGNsn+1bxdCPv67F9okGzh3kxl5P9yeflHdVr6bEUw+v7KRlQYm7ym1fOm/I2I6V4tWdtKx7sf2igXMHubHt6PZ+gDOA9Z20LNiOcK9BV+37MLCuk5YF25HuG/fTxOkMu30lxi/VJ5GniY/Q7fHXpdi+0cC5gyxvZ7o5yZ5DeHd513YGPjFHvrPG2Yy/p70rXbXvUwy7fUMfv1Ltk6oQewAN2c6k+2DJcnE6ZYr/yM6k++DMcnEycJPOWnNjG7B9fW5f7uPvNMoef1JxTgAmWwe8HNhEuhPPJuCv6XZZdSXrgb8lbftuAI6lrvZtJn371nbYjpXkbF8N47cOeAXpj7+N1NE+qSgnANM5EjiX+P76PHCvjnOfxlGEz8bGtu+zwOEd5z6NowifjbV9/WzfkaTZPz8HHNFx7lK1nABMby3hUaizmb2fPgkcTR1XjSsZte8cZm/fJ4DHUn/7Hk/4dKzt62f75t0/P0n97ZPGdPFGqtgiPqS3Zs1ib+DhhKuJg4C9gN0W/n+/AH4IXAh8BjgF+G73KUbZhxu3b9eF/9+ofRcA/4Ptq5Ht63f7JCcAkiS1yOUqSZIa5ARAkqQGOQGQJKlBTgAkSWqQEwBJkhrkBECSpAY5AZAkqUFOACRJapATAEmSGuQEQJKkBjkBkCSpQU4AJElq0PrSCUiSeufmwAELsR/h66W/BtwO2Gnhv7MDcBVwGfAz4GuELyh+ifAVxWs7zVg34tcAJUnLWQPcHtifUOj3X/Tvt4r829cC5wCnAu8hfF5ZHXMCIElt24FwFb+4wO+3EDfpYPubgY8BJwKnEF8zNCUnANLy1gO7ANsDOy/833Zh289mNwBXL/rvXwH8Epc1Va+ly/ajq/q9gXXl0hpzIXA88G84EcjOCYBasj1hSXMfYE/Cb5Z7ALcBbg3cFNhtITbMuY3NwJUL8dOFuBT4MfAT4LsLcTFw+ZzbkCbZCzgQuANw0KJ/v0PJpGZ0LvCHwNmlExkyJwAaolsCdwEOJpwA77gQt6WeKx0IN0h9h3Bz1EUL8dWF/3xdwbxUv9LL9l3YCrwR+DPgV4VzGSQnAOq7vYB7APcEfp1Q+PcomlG8TYSl0HOBzy/880v480KLRsv2iwt9bcv2uV0EPB74culEhsYJgPpkDeGq/jeB+wCHE5bxW3A98DngUwtxNuFnBg3DEJbtc7oaeBLw/tKJDIkTANVub+ChwP2A3yAs7yvca3A+8BHgdODThJUD1Wu0bD9auj+Q4S3b57SZcF/AiaUTGQonAKrNdsBRhKL/UMJJUqu7EjiDMBl4P+HmQ5VxU8I9J4uv5A8iFPpWlu1z2UqYBLyhdCJD4ARANVgH3As4mvBb3+5l0+m9LcBngA8C/wl8q2w6gzR6Sc5+hCK//6J/j31JjibbCjwPeHPpRPrOCYBKWUtY1v9d4JGEm52U3lbCa1ffRXjjmo8ezmY7wtMjS6/m78r8j4oq3mbgtwlvEtScnACoa3cmFP2nEJ7HV3euJ9wz8B8L4aNV29yc5V95uzcu29fq54Qbgb9ROpG+cgKgLuwIPA54DnDvwrkouBT4F+CtwLcL59Il77YflvOAIwhv5tSMnAAop9sAzyL8XufvonXaApxJmAiczDCeJHDZvi0bgeNKJ9FHTgCUw1HAnwAPJ/zWr/pdSviUa59eNrR42X70bnuX7dtzA3AI4Q2amsH61f8r0lTWAg8jvLbTZf7+eTN1Fv/Fd9sv/n3eu+3L+yWh6H4N+ArhNdbfAS4j/D6/iTB2ewOHEm7aO5T0F3XbAa9e+PuagSsAirUOeCLwF4Qb/NQ/NxBO0iW/yb4DYf9Z+spbX5JT3qWE1/F+jVDkR8X+u8x+fr8t8GLg9wn3BqX0m8DHE//NQXMCoHmtBR4D/A3hJK3+ejdhEteFmxB+ix+9Bc9l+zpsJnyhcnGBH/17jkdHbwu8ivDej1Q+Ajwo4d8bPCcAmtUaQuE/juG/pe/qhfjlwn++lvFH53Zj2z0ONwV2pZ8/q92L8K6AHNYRXuH8aOBIwrcc+thHQ7F42X7xVX2pL1D+PvD3hBWgWFsJHwO7IMHfaoITAM3iSOA1hMdu+uo6wtLlxQvxPeAHhGXOnwI/Inym94o5//7OhInBTYFbE56E2H3hn7cjvPvgDsDN5vz7qf0vecZzT8IrW59K6Ad1a+my/ejf51m2z+1I4MOEYyfWm4HnJvg7TXACoGncCTiecBXXF9cSPh96AWEZc/TPWk6ANyX06yGEJfBDCFfHt+k4jycSfgJI5dbAXxMKf4qrOq2s62X7nB5C+IbFdpF/52eEyecQHmcdhK2RoXI2EH6nu574ccwZm4EvAW8CngHcjfgTSSl7Eu5m/mvgNOAX5Ou3HwDbJ8p7LWE59/KM+bYa1xBeePPvwF8SXqp1F4Y3wXoeafrL+wAqEjuYKuNowvJ46ZPfcrEFOJcwOXkE9Syn57AO+HXgj4EPkHZC8LJEOd6S8BXC0vtF3+OnhLvY3wL8EaGQ7U07q6BrgbOJ78e3dp24VhY7mOrWnQi/x5U+GS6NS4F3Ak+i7a8FrifcVPd3wPnM35+/Ik0/Hsa2n1WM1WMT8E3gFMKz688g/Abux7CCQwiPpcb08fc6z1orij1g1I11wEsIdwmXPkmO4hLg9YTne31EbHm3BV4EfIrwU8i0ffv/Emz7HoSXvpTeT2qM64ALgZMI9888hTBZSnGj29CdTHz/H9x51lpW7EAqvwMJj4GVPmluBX4CvIHwaForS5+p7Am8gOnG8u6R2zoSuHKK7Qw9Wl+2z+FhxI/Ln3aetZYVO5DKZx3w54Q75kueRK8l3OD0YHxGPJX9gVew/PL8JyL/9t6Ewle6+HYVLtt3ax3hBtWYMTur86y1LCcAdbodoRCUPLF+DXgpvtM9p7XAAwhL0aPfVmMe59wZ+CLli3KOWHq3/dEM8277PngrcWN5PeHFXCrMCUB9Hk/4WEepE+1Hgd/CZdKu7U248z9mleUNlC/UsXE58HngXwkT0KMJnwv2y5X1eDTx4/yozrPWjTgBqMfOwNspc9K9gXBldWjuRiqbwwnL4aUL+LTxQ8Jk8y2EGyUfAOyRvFeUw67Ev3/ExwEr4ASgDncmvCyn65PwtYQrLb8U2G9rgC9QvqgvDZft420AnlY6iWWcRdy+4eOAFXACUN7j6P6O7V8AxxJeEqP+S7EkGxMu2+exM9sK7fGFc1nqT4nfb3wcsDAnAOWsJ3xpq8sT9XWE34m9sW841hD30qFpY7m77e+Nd9vnsoHw/ojFY7CxZEJLHEL8PuXjgIU5AShjV8KJtMvi/0Fg3y4ap07di/T7yk+B/8Jl+1KWK/41TgJiX0d+VvcpazEnAN3bl/D5z64K/2eAozppmUr4R9LtK58jfOzIpftyJhX/2iYBPg7Yc04AunV/uvsi29cJH+PRcK0lfGI1dl/ZAhyHL3oqbZriX9Mk4FHE73s+DliQE4DuPIluPt17A+Ed/b7XfPjuRpp95g+7Tlw3Mkvxr2US4OOAPecEoBsvYraPwcwb5xM+T6s2vIj4feakzrPWUovv9p81Sj8dMG/eo/gevnSsGCcAea0BXkX+wv9LwtXAdp20SrV4B3H7zTX4REhp81z5L42NXSe9SIrHAQ/pPGsBTgByWg+8m/zF/0y8u79Vsd+LeFP3KWuRFMW/9CTAxwF7zAlAHtsD7yNv4b8W+ANcPmvZcl8TnCUe1n3KWpCy+JeeBPg4YE85AUhve+Bk8hb/i4EjOmqP6vUL4vaj23SfsshT/Efx9A7bMeLjgD3lBCCtHYAPkLf4/xdws64apKr9krh9yZf7dC9n8f/Uwt/vWorHAWM+g605OQFIZwfgw+Qr/L8CnttZa9QH1xG3T92i+5SbNsTiD2keB3xb51nLCUAi6wiPU+Uq/l8jPPMtLfZj4vYr96nuDLX4j5xFXBt8HLAAJwDx1hE+d5qr+J8C7NJZa9QnsR8B8u7rbsQ8579anE0d5wcfB+whJwBx1gD/TL7ifyJhgiEtJ/aDUufjVVduQ7/yH/FxwB5yAhDnePIc2Fso/5pP1e9viN/XntB51u1opfiP+DhgzzgBmN+zyXNgXw08ssN2qL8eQfz+dhm+SCqHFpb9l3obce26Htit86wb5gRgPg8nfHQn9YH9I3yXv6Z3C9Lsh18D7thx7kPW2pX/iI8D9owTgNkdTniHeuoD+yLgdh22Q8PwUdLsfz8jfLFybbfpD06rxR98HLB3nADMZi/g+6Q/sL8C7NlhOzQcqX+K+hLwZ8Bh+KGgWbVc/EfOIq6dPg64oItOiC3iLQ3UjsAngXsk/rtfAe5HeKZbw3ZX4FmE8d4b2KloNlLbbiDcc3UZ8G3gq8D/ECYxTZyPXQGYzhrg30g/q/8CcMsO26EydiO8L30zea4ODcNIG58FXsjA35YZ20mt+DPS72DnAjfvshEq4sHEPx5lGEaZuBo4gYF+OCu2c1pwX2ATaXeqcxn4zFLsCryF8E6H0icxwzDi4hrCu1kG9QGt2E4Zuj0Ij+al3JHOBW7aZSPUOa/6DWOY8QXgzgxEbGcM2VrgI6Tdeb5DmFRomHYj76uhDcMoH1cS3nnQe7EdMWTHkXanuQw4oNMWqEsPAi6h/MnJMIz8sQn4fXouthOG6kjS/u5/HeHRLw2Pv/UbRrvxQnostvFDtCthqT7VDrIFeGKnLVBX/K3fMNqOTcDv0FOxjR+id5B2B3lxt+mrA171G4YxiquA/emh2IYPzWNJu2O8odv01QGv+g3DWBrnAdvRM7GNHpJbAZeSbof4JLC+0xYoJ6/6DcOYFC8hIb8F0K13A09I9Ld+ChwK/CDR31NZDyZ8pezXSiciqVpXE94R8KMUf8zPcnbnIaQr/lsIn1W1+Pff6Kr/VCz+kibbQMJVAFcAurEz8GVgn0R/7y+Av030t1SOV/2SZnUNcHvCe1+iuALQjb8lXfE/FTg+0d9SGV71S5rXzsDjSycxrdibHvruIOB60twAcgl+2rc2pW8Kmib+mfAK4Vw2Jsx1C/Ahwk9c+wA7LtnWroRj6lmEm2BruGFyC/B+wj056pfc9Wlnwv76IsIqcKp97n9jGt2l3B1cszXAx0kz4JuAIzrNXtMoXXwmxfcIPzPk9tVE+V4IHD7jtg8lFF8nAppHl/VpHfB8wltbU+xru8/e3O512cG1eQLpTi6v7Dh3Tad00Vkpcl/1j9wxUb4fJdzgNC8nAppHifp0P9JMAo6Zc/udKtHBNdgAfJ80J5SvATt1m76mVLrYLI2urvpHnp4g5wsJS6UpOBHQLErVpxck2PYJEdvvTKkOLu2vSHMS2QwclSinNXRbHFpQusgsjq6u+hf7h8ictwD3zJCXEwFNo1R9WgdcELnt0yK235lSHVzSrYBfkObk8feJcloDvH7hb/oUQTqli8tWur/qX+ysKXNcKU7PnJ8TAU1Ssj79UeS2vxG5/U6U7OBS3kiaE8Z3iPtddGRx8R+Fk4A0SheVElf9i31zhbymjSd3lKcTAS2nZH06OHLbP4vcfidKdnAJ+5DuLs8HJshnueI/CicB8UoVkZJX/YvFrnTt23G+TgS0WMn6tEvktq+N3H4nSnZwCe8izcnhbQlymVT8R7ExwXZaVqp41DIBiH3HxQ7dpww4EVBQsj45AZgi+uROwA3Et/lywn0EMaYp/qNwJWB+pYtH6Z8AYvf3UhOAEScCbStZn2J/Arg0cvudKNnBXXsnaU4EL4zMY5biPwonAfMpXTS2UnY14Iopc1wp7tR9ystyItCmkvXJmwCniL7YlzRX/xcC20XkMU/xH4WTgNmVLhaLo8RqwDcic35ax/muxolAW0rVp3WEc33Mtk+N2H5nSnVw195OmoP+tyJyiCn+o9gYsf0WlS4SS6Pr1YAzIvP9WIe5zsKJQBtix2Zef5Bg274IqBK3Ic0Hf86KyCFF8R+FKwHTK10cVoquVgNSPPJ63w7ynJcTgWGLHZN5PIA09eJxc26/UyU6uGuvIs3Bfdic209Z/EfhJGA6pYvCpOhiNeApCfL8JnCLzHnGciIwTLFjMYt1hCv/FMXfjwFVYhfg58S38z1zbj9H8R/FH8+ZU0tKF4NpIudqwO0T5XgO4ViqnROBYYkdg9VsINzt/2Lif/NfHJ+JaXSXcndwaX9IfBs3E3aSWeUs/j8GDpwjJ61uV+At1FFEaoq+TAIADgFOwjE0ysTz6InYhtZsLfAt4tv473NsO2fx/yGw3xw5aTYPJizTlz6Z1BRn059JANS1ImC0EVdT/09m/7/YxtbsIcS3bzPhamIWXvkPh6sBN44+rQSMuCJgdBWvoUdiG1uz/ya+fSfNuE2v/IfJ1YDx+BT9mwSAKwJG3rgS2IMeiW1wrX6NNC/+OXyGbXrlP2yuBoxHH1cCRlwRMHJE727Mjm1wrTYS37ZPzLA9i387XA3YFn1dCRhxRcBIFecS95bYImIbXaO1wHeJb9sjp9yey/7tcTVgW/R5JWDEFQEjJq6ip+fp2IbX6L7Et+sbhInEaiz+bXM1IETfVwJGXBEwZo1NwG/TU7GNr9E/Ed+uF0+xHZf9Ba4GjGIIKwEjrggY08QW4Jn0WGwH1GZH4t/890tWf47T4q+lHgRcQvmTUskY0iQAnAgYK8cm4Dn0XGwn1OZo4tv09lW24bK/VrIb4dW+pU9OJWMoPwcs5k8DxuL4BT1e9l8stiNqcxLxbbrXhL9v8dc0Wr83YIiTAHAiYIS7/fdlIGI7oyY7EV7DGNOerxOK/HJc9tcsWr83YGg/ByzmTwPtxTWEx8u3Z0BiO6UmjyK+PS9b4W9b/DWvllcDhroSMOKKwPDjauC19OwNf9OK7ZyavJO4tmwB9lnm71r8FWs34K2Eb0uUPqF1HUOfBECYCHyG8n1tpIktC+P5fODmDFhsR9ViO+By4tryyWX+rr/5K6W7ACcCFxGWFEuf6LqKFiYBGwjtLN3XxvRxHXAZ8FXgNOAE4BhgdxoR24G1uA/xbXnBkr/plb9aszNwFnn2+SHfEzBi/40bSn0ZrKEM0CuIa8dmYK9Ff8/ir1ZZxOLYf9sMpb4M1lAG6Fzi2vGpRX/L4q/WWcTi2H/BUOrLYA1hgHYn/uaq0at/1wBviPxbK4W/+atPLGJx7L9h1JdBG8IAPZH4duyHxV9ayiIWp/X+G0J9GbQhDNBbiGvDt3HZX1pJ60UsVsv9N4T6MmhDGKCvENeGE7H4S5O0XMRSaLX/hlBfBq3vA7Q78W/huiDyf79SuOyvIWm1iKXSYv/1vb4MXt8H6LHkOaBiwyt/DVGLRSyl1vqv7/Vl8Po+QK+jfLFfGl75a8haK2KptdR/fa8vg9f3Aart1Zte+asFu5Dv2Ps4A/vi2jJyvjb46R22YzV9ry+D1+cBWgtcRXwbUkXOK/9jgL/K9LeleeScBLyxw3aUkmMSsLHLBkyhz/WlCX0e7RIYSQAAGwxJREFUoAOJzz9V5LzyPxq4YWE7x2fahjSPXJOATcBBHbajlJSTgI3dpj6VPteXJvR5gJ5MfP59Kv6jcBKgmuT6TfuELhtRUIr+O7bzrKfT5/rShD4P0GuJzz82ci/7Ly3+o9iYaZvSPHKsBFzQaQvKilkJ2Nh9ulPrc31pQp8H6HTi84+Jrq/8l4YrAapJ6pWAq7pNv7h5+u/YIplOr8/1pQl9HqBLiM+/r8XfSYBqlHoSsL7b9Iubpf9qL/7Q7/rShL4O0K7EvwGw78XfSYBqlHISsKHj3GswTf/1ofhDf+tLM/o6QEesklcrxd9JgGq0C3A28cfbbbtOvBKT7gnYWC6tmfW1vjSjrwP0lFXyyhGlbvibNjZmyk2axy6EYyZmn75X51nXY7lJwMaSCc2hr/WlGX0doI0TcsoRtV75Lw1XAlSTs4jbn5/cfcpVWTwJ2Fg2lbn0tb40o68D9PYJObVa/J0EqDbvJG5ffm33KVdnA/C00knMqa/1pRl9HaCPT8gpZdS+7L9cXA8ckClnaRYvJ25fPrv7lJVQX+tLM/o6QN9dJa8U0bcr/1Hxf1SmnKVZPZ64/fkGwhM/6qe+1pdm9HGA1pKneC6Ovl75W/xVkwOI36+P7jxrpdLH+tKUPg7Q7jPmOGt45S+lsY74L3b+V+dZK5U+1pem9HGADpkxR4u/VM5pxO3f1wF7dJ61UuhjfWlKHwfogTPmaPGXyvlT4vfz4zrPWin0sb40pY8D9KQZc7T4S+Xcnfh9/QrCT3/qlz7Wl6b0cYBeNGOOq4U3/El5fYP4ff4tnWetWH2sL03p4wC9bMYcJ4VX/lJ+f0f8fr8ZOKzrxBWlj/WlKX0coFfOmKPFXyor1Y275wDbdZy75tfH+tKUPg7Qm2bM0eIvlbfS1+1mjRO6Tlxz62N9aUofB+hdM+bYZfF/LBZ/aTm/S7rj4akd56759LG+NKWPA/S+GXNcGo/IlJc3/Ekr2x64mDTHxDV4P0Af9LG+NKWPA/SBGXNcGv8nQ05e+Uurew7pjo2f4ySgdn2sL03p4wCdOmOOS+PwxPlY/KXppFwF2ApcDty3w/w1mz7Wl6b0cYA+MmOOS+PQhLlY/KXZPI60x8p1wLM7bYGm1cf60pQ+DtCZM+a4NO6SKA9/85fmcxbpj5t/B27eZSO0qj7Wl6b0cYBiTx53TZBDzuL/6AT5STU7CLiW9MfPTwivCl/TXVM0QR/rS1P6OEClfwJw2V+K9yekP4ZGcR7wcJwIlNbH+tKUPg7QKTPmuDRibgLs45X/LTP9XSnGWtK9HGil+ArwfGC3jtqkcX2sL03p4wCdPGOOS+PIObfbxyv/OwM/AI7P9PelGHsQ9s+ck4CtwK+Ak4AHdNMsLehjfWlKHwfovTPmuDTuP8c2+3jlvz/hS4ejbW3MtB0pxr0Jd/LnngSM4iLgpXjDYBf6WF+a0scBeseMOS6NWa+2h1D8nQSoZs8AttDdJGAr4W2C/wIc0UH7WtXH+tKUPg7QG2fMcWk8ZYZt9XnZf6Vt+3OAavTndDsBWByuCuTRx/rSlD4O0MtnzHFpvGDK7Qyx+DsJUM2Op9wkYCuuCqTWx/rSlD4OUOzjQy+bYhtDWvZfKTZmykOK8VLKTgJG4apAvD7Wl6b0cYCePWOOS+P1q/z9IV/5Lw1XAlSjPwA2UX4SsJVtqwKHZG3xMPWxvjSljwN09Iw5Lo33TPjbLVz5L41jM+UlxXgo8AvKTwBGsQV4E7BTzkYPTB/rS1P6OEBHzZjj0jhzhb/bxyv//UjzHLWTANXoQODLlC/+i+MsYMecjR6QPtaXpvRxgPadMcelceEyf7PFK38nAeqDnYAT6f4xwUnxD1lbPBx9rC9N6eMA3WTGHJfGVUv+XstX/k4C1BcPBL5B+eK/FdiM9wRMo4/1pSl9HaDY3wZH78fv65X/jzLkvBX4e/yAiuq1I3Ac4ca80pOAN2Zu6xD0tb40o68DdNEqea0WhwGPw+Jv8Vcf7Un4WaDLVwgvjeV+StS4vtaXZvR1gD60Sl6rxbuw+Fv81Xe3A14F/JzuJwDXdNC+vutrfWlGXwco9nXAOWIT8PhM7c31m/9W4AQs/uq3DcBzgfPp9pjXZPZv5fo6QH+0Sl4Wf4u/2nQY8BbCzb5OAMqyfyvX1wF65Cp5Wfwt/mrbroS3hp6HE4BS7N/K9XWADlwlr67C3/yl+uVaFdBk9m/l+jpA21H2DuCteOUv9U3qVQFNZv9Wrs8D9CXi87f4S206gn6f//rA/q1cnwfo3cTnb/GX2tXn818f2L+V6/MA/QXx+Vv8pXb1+fzXB/Zv5fo8QA8nPv9ZIucNfweQ74Y/i7+0vD6f//rA/q1cnwdod+Lznza88peGp8/nvz6wfyvX9wG6GIu/xV+aT9/Pf7WzfyvX9wE6CYv/SsVf0mR9P//Vzv6tXN8H6CVY/C3+0nz6fv6rnf1bub4P0FHkKaLe8CcNX9/Pf7WzfyvX9wHanvBZzpRF1Ct/qQ19P//Vzv6t3BAG6Aws/hZ/aXZDOP/VzP6t3BAGKNULgVz2H7cBeFqGvyvVYgjnv5rZv5UbwgAdSXw7vPIftzNw1sI2js+0Dam0IZz/amb/Vm4IA7Q9cCVx7finTLn19cr/U0u2tTHDdqTShnD+q5n9W7mhDNDJxLXjO6Qvpn2/8l8argRoaIZy/quV/Vu5oQzQM4lvy2EJ8xla8XcSoCEayvmvVvZv5YYyQHsBW4hry98lymUoy/4rxcYM25cW2x94HHCTzNsZyvmvVvZv5YY0QOcR15ZvEl9ch178nQSoCycS9rOrgfcAjwJ2zLCdIZ3/amT/Vm5IA3Qc8e25d8T2cxf/HOYp/k4ClNMOwGXceH+7EngX8IiF/04KQzr/1cj+rdyQBugQ4tvz5jm3PdTf/FcL7wlQao9j9f3uCuBfCZOB7SO2NaTzX43s38oNbYAuIq49VwA7zbjNVou/kwDlcCqz7X+Xs20ysN2M2xra+a829m/lhjZAKX4GOGaG7bW27L9SbMyUq9qyF+GlXPPuhz8FXjPD9oZ2/quN/Vu5oQ3QwcS36awpt2XxH4+nZ8oZ4HXAsRn/vurwUuL3w3+dYXtDO//Vxv6t3BAH6MvEtWkLobhPYvEfj7OBXTLl/bpF23ESkM/+wIsLbn8N8FXi98UHzrDNIZ7/amL/Vm6IA/QS4tv1hgl/fz/ghwm20WXxT/mb/9I4h3zF/++W2Z73HKR3Z7bdx3JsoRweTvy++ANg3QzbHOL5ryb2b+WGOEB7ADcQ164rCFfMS3nlPx5dXfkvjVJFaoj258YT2hL9eybx++OrZ9zmEM9/NbF/KzfUAfoA8W170ZK/afEfj1LFfxTHZtp2S5Yr/iX69+4r5DBrHDLjdod6/quF/Vu5oQ7QY4hv2yVse6zIZf/x6HrZf6Xw54D5LV72XymO7SiXd62Sx7T75KyGev6rhf1buaEO0PakuVp/AuHK/8cJ/tZy4ZX/uGmu/JfGxky5DNmkK/+lcWzmXG4DXD9lLpPiKXNse6jnv1rYv5Ub8gCleCfAV7D4L47aiv8oNmbKaYhmKf6jODZjPsfPmMtycRmzv8CLBNvVZPZv5YY8QKmuLHKExX9cTPEfxcZMuQ3JPMV/FMdmyOdmwM/nzCfF8TTk818N7N/KDX2A3kueYhgTr8vU1g3AJzPlXHvxH8XGTDkOQUzxH8WxiXOa5X6PlWIz4X6GeQz9/Fea/Vu5oQ/QfchTEOcNi/+4lMV/FBsz5Tqyf+a/n0OK4j+KYxPltAfhc7+x+bw/Ioehn/9Ks38r18IAfY48hXHWsPiPy1H8txJu/rxVppwfRfhZaWOmv59DyuI/imMT5PXGRLncJyKHFs5/Jdm/lWthgB5LnkIzS1j8x+Us/qu9xnleo+I/2tbGTNtJKUfxH8VDIvLaG7guQQ6fjciBBNvXZPZv5VoYoLXA18lzEpwmfM5/XIrffZeLnwAHZcr5YcC1y2yz5vcQTPOc/7zxZsK7++f19kR5PC4iBxJsX5PZv5VrZYCeTZ4T4Wrhlf+4IVz5L42NmbYbI+eV/+uJK/4HEvfJ31F8ndne+7+c2Bw0mf1buVYGaAfynRBXCov/uCEW/1FszLT9edRc/AHOSJTLUyPzIEEOmsz+rVxLA/RC8pwUlwuX/ccNadl/pajh54Cal/0BjkmUyzeB9ZG5kCAPTWb/Vq6lAdoe+A55To6Lw+I/roXiP4qSk4Dai/8uwPcT5fN7kbmMxOahyezfyrU2QM8izwlyFC77jxvysv9KsTFTXpPUvuwP8JpE+aS6+idBLprM/q1cawO0HeEEkuNE6ZX/uJau/JdGlysBtV/5QxivVK/lPiZBPiOxuWgy+7dyLQ7QE0l/ovTKf1yLV/5LY2OmPBfrw5X/GuDjiXL6bKKcRmLz0WT2b+VaHKA1wP+S7kRp8R9n8d8Wf5UpX+hH8Qd4TsK87psop5HYfDSZ/Vu5VgfoXsAW0pyUnpYhP5f9x6MPy/5LYxPwu5ly7sOyP8AdgCsT5fXBRDktFpuTJrN/K9fyAJ1EmhPTVcCdEubllf949PHK/wbi31K3kr5c+a8HPp0or+vJsw/E5qXJ7N/KtTxAdyDdld9nCTcYxrL4j4fFf1xfij/AyxLm9uqEeS0Wm5cms38r1/oAHUe6k9QrInNx2X88XPYf15dlf4C7k+ZjP1sJk8DdEua2WGxumsz+rVzrA7QD8FXSnKg2A/ebMw+L/3hY/Mf1qfjvCHw5YX5PTJjbUrG5aTL7t3IOEDyIdCerS4Cbzbh9l/3Hw2X/cX1a9gd4W8L8PpEhv8Vi89Nk9m/lHKDgvaQ7af0H05+0LP7jYfEf17fin/JNm78irHzkFJujJrN/K+cABXsCl5Pu5PV/p9imxX88LP7j+lb870Han1b+LHF+y4nNUZPZv5VzgLZ5EulOXpuB356wLX/zH4+cv/k/mjzF39/8t7kFaT+0dT5pnqpZTWyemsz+rZwDNO79pDuJXcnyRc0r//Hwyn9c36781wFnJMzxeuBuiXNcSWyumsz+rZwDNG5P4DLSncy+Sbg6Gulr8X9tppwt/uP6VvwBXpU4z7/MkONKYnPVZPZv5RygG3sCaU9oHyO8Fc3iPx4/xuK/WB+L/7MT5/lp0n3qdxqx+Woy+7dyDtDy3kHaE9tbsPgvDov/uD4W/0cQ7oNIledVwB0z5DlJbM6azP6tnAO0vF2Ab5DnhJwyLP7jLP7jkav4Hw5ckzjXZ2TIczWxOWsy+7dyDtDKDiPd60xzhHf7j/Nu//HIcbc/hKv0nyTO9T0Z8pxGbN6azP6tnAM02UvIc3KODa/8x3nlPx65rvxvDXwrca5fId++vJrSx7ExOZSZAzTZGuB9lD8QFofFf5zFfzxyFf+bA19InOs1wMEZcp1W6WPZmBzKzAFa3QbgQsofDFtx2X8pl/3HI9ey/02Bz2XI96kZcp1F6ePZmBzKzAGazn7ALyh7MFj8x1n8xyNX8b8ZeYr/GzLkOquSx7OxeigzB2h6RwNbKHMguOw/zmX/8ci17H8L0i/7b2XbuzFKK3EsG9OHMnOAZrOR7g8Cr/zHeeU/Hn278v8OcKsM+c6j62PZmC2UmQM0mzXAu+nuAPDKf1wfr/z3o39X/nsBX8yQ75WUvelvsUPp7jg25otDVxw9JRE7QC3akfDK0tw7v1f+47zyH49cV/4HAhdnyPd64MEZ8p1Xyg9/GXniv1ccPSURO0Ct2p30z0Mvjr5e+R+YKWev/Mcj15X/fYHLM+S7BXh6hnzndXfK3c9jzBb3WGEMlUDs4LRsX0LRy7HTv40830O3+G8Li/+4JwDXZsr52Az5xvDqvz/hKkBGsYPTukPJ93jgmcAtE+Zq8d8WFv9xf0q+K+K3Zcg3hlf//QtXATKJHRjB/ch35fRt4JAEOVr8t4XFf5sdgX/OlO9W4L3AusQ5x/Lqv3/hKkAmsQOjIFex2kr4TOrvROTWx+Kf64Y/i/82ewOfz5TvVuCD5PkZK4ZX//0NVwEyiB0UbfMYQoHJsfNvAY4H1s6Yk3f7b4tNwBMz5dy3u/1/k/Rf9FscHyOsLtTGq//+hqsAGcQOisY9gVBoch0EJxPezjYNr/y3hVf+wVrgr4DNmfLdCnyC8P2M2nj13/9wFSCx2AHRjT2ZvJOA7wP3XyUHi/+2sPgHtwROyZTrKM4Adk6Yc0pe/fc/XAVILHZAtLxjyHdPwFbClczrgR2W2XbOZf9cb3Fz2X88Ui/7PzhjrqM4HdgpYc4ppbr6f3/XiQ9IqgmYqwAJxQ6GVvYw4JfkPemex/hrd73y3xZe+cOu5L3LfxQfYPnJaC0sPuWlmoS5CpBQ7GBosvsS3n+e8+R7DfBcLP6Lw+If9r3vZMpzcbyD+u72X8yr/3o4EatM7EBodfcg7x3XOcPiP64Pxf8mwAnkvdFvFK9OlHNOFp16uApQmdiB0HT2Ab5C/hNyyvA3/3F9+M3/EXRz1b8FeGmCfHPz6r8+TsgqEjsImt4tCF/4y31yThFe+Y+r/cr/TsBpmfJbGr8iPO7aBxab+rgKUJHYQdBsdgJOopsT9bxh8R9Xc/G/CfA35HsV9XL7xhER+XbJq/96OTGrROwAaHZrgL+kzpeSWPzH1Vr81wBH081y/yi+CNx+znxLsMjUy1WASsQOgOb3O+R/QmCWsPiPq7X4P4zw+GeX+8bJwC5z5luCV//1c4JWgdjOV5yDgW/S7cl8ubD4j6ux+N8P+HSmnFaKTcCfz5lvSRaX+rkKUIHYzle83YD30e2JfXFY/MfVVvzvRXjFbtf7xaXAA2bMtQZe/feHE7XCYjteaawBXgRcR/cn+ouB5xFuKEvJ4j8esxT/tYSfiD6RKZfV4jPA7abMtTYWlf5wFaCw2I5XWvek2xu7FselwHHA7gnaYfEfj2mL/wbgBcA3MuWxWmwCXg6sn7LPauPVf/84YSsottOV3m6E16uWKABbCY+U/Rtw1Jz5W/zHY5rif1vglcDlmXKYJi4BfmOGPquRxaR/XAUoKLbTlc/RwM8oVxC2Al8Cng/cfMqcLf7jMan470R4oc5p5P189DTxHqYf41p59d9fTtwKie1w5bUX3b3hbVJcS7hR8ZGs/OEXi/94LFf81wBHAm8Frsi03VniJ8Bj5+28ylhE+stVgEJiO1zdeArlVwNG8TPgnwjfmB9NBiz+47G0+N8NOJZyv+0vFycBt4rov5qkKiBG/8MJ3AxiO1vd2Z2wVFv6AFsclwP/gcV/cbwe2AH4LeBE4LuZtjNvfB94THwXViXV1b/R/3AVYAaxna3uPRz4NuUPtJzR1+J/MWFCVNMbHhf36Qn0641+0/Dq31gargJMKbajVcZOhCXlX1L+YEsdfS3+NcdnCD9DDJFX/8bScBVgSrEdrbJ+DfhXyh9wqWIT8MSkPbTNnYEfVNDGLuP7wLMJLxYaooPx6t+4cWwh7Bu9NtSDVul8n3CD4P2BzxfOJYUPEV5IdABhlSOV/YCPE56qaME1wEbCpOethBPiED2V/n2nQPmtAZ5cOolYXezYWyP/9x589VgDHAO8ArhD4VxS+Rnhqv0nwGWL4nLgV4RH6SAUvOuX+d/vSphIvBrYM3eyFdgEvJ1Q/H9QNJNufBG4S+kkVKXzCfeHaILYpRbVZ3vghbS33N1ybAbeCexLW0q+OdGoOy6j51wBUIwdgWcBLwVuUzgX5bGF8IKm44ALC+dSQuz5S8PW6/rkBEAp7Ag8E3gJcPvCuSiN6wnfa3gV8NXCuZTkBECT9Lo+OQFQSusJr319CXBY4Vw0n2sIb2F8LfC9wrnUwAmAJul1fXICoFzuC7wYeBg+bdIH3wL+EfgXtt34KCcAmqzX9ckJgHK7PeE58acDexTOReO2AB8lvE74VIb7KF8MJwCapNf1yQmAurId8CjCvQL3x1WBki4B/h/hcb6Li2ZSPycAmqTX9ckJgEq4DeFtfE8BDiqcSyuuAT5AKPpn4NX+tJwAaJJe1ycnACrtUMLLhR4D3LFwLkNzLWFp/73AKYTvOmg2TgA0Sa/rkxMA1eRuhInAo4EDC+fSVz8HTidc7X8IuKpsOr3n+WvYmh5fJwCq1T7Agxfi/sDOZdOp2kXAaYSr/LMJr+tVGp6/hq3p8XUCoD7YATiS8GjhbwD3JLx8qFUXA2cuih8VzWbYPH8NW9Pj6wRAfbQDYRJwH+DXgXsw3FcRXwecB/zPorikaEZt8fw1bE2PrxMADcWehMnAoYQnCw4C7kR4/LAvfkb4+tyXgS8txJdZ/iuE6obnr2FrenydAGjItiNMAg4gfL54b8K9Bfss/HvXPyPcQPjs8PcJy/jfBL6xEN8ELu04H63O89ewNT2+TgDUst0Ibye8FbA7YRVhA3CzhX/uvPDPm074G9ex7fG6qwmv0f35orgC+CHhd/qf4GNlfeP5a9iaHl8nAJK0Ms9fw9b0+Po6VkmSGuQEQJKkBjkBkCSpQU4AJElqkBMASZIa5ARAkqQGOQGQJKlBTgAkSWqQEwBJkhrkBECSpAY5AZAkqUFOACRJapATAEmSGuQEQJKkBjkBkCSpQU4AJElqkBMASZIa5ARAkqQGOQGQJKlBTgAkSWqQEwBJkhrkBECSpAY5AZAkqUFOACRJapATAEmSGuQEQJKkBjkBkCSpQU4AJElqkBMASZIa5ARAkqQGOQGQJKlBTgAkSWrQ+tIJTGFr6QQk9daa0glItXIFQJKkBjkBkCSpQU4AJElqkBMASZIa5ARAkqQGOQGQJKlBTgAkSWpQFxOAqzrYhiRJmkEXE4DvdbANSZI0gy4mAB/tYBuSJGkGXbwm82DgfGBdB9uSpMViz3GxryL3VcR1a3p8u1gBuAB4cwfbkSRJU+pq9rI9cCpw/462J0ngCoAma3p8u3oM8HrgocCJwOaOtilJklZQYvZyEPAM4IHA3sCGAjlIaoMrAJqk6fHtdfKSlFnTBaIBTY+vbwKUJKlBTgAkSWqQEwBJkhrkBECSpAY5AZAkqUFOACRJapATAEmSGuQEQJKkBjkBkCSpQU4AJElqkBMASZIa5ARAkqQGOQGQJKlBTgAkSWqQEwBJkhrkBECSpAY5AZAkqUFOACRJapATAEmSGuQEQJKkBjkBkCSpQU4AJElqkBMASZIkSZIkSZIkSZIkSZIkSZIkSZIkSZIkSZIkSZIkSZIkSZIkSZIkSZIkSZIkSZIkSZKA/w+dHU8pu9lSZAAAAABJRU5ErkJggg==;" parent="1" vertex="1">
          <mxGeometry x="470" y="360" width="110" height="110" as="geometry" />
        </mxCell>
        <mxCell id="PzClLLOftk57QwvuD_dU-16" value="Ask participants to write narrative text describing their thought processes leading to their final completed drawing" style="text;whiteSpace=wrap;fontSize=12;fontStyle=1;align=center;" parent="1" vertex="1">
          <mxGeometry x="620" y="530" width="160" height="40" as="geometry" />
        </mxCell>
        <mxCell id="PzClLLOftk57QwvuD_dU-18" value="" style="shape=image;verticalLabelPosition=bottom;labelBackgroundColor=default;verticalAlign=top;aspect=fixed;imageAspect=0;image=data:image/png,iVBORw0KGgoAAAANSUhEUgAAAgAAAAIACAYAAAD0eNT6AAAABHNCSVQICAgIfAhkiAAAAAlwSFlzAAAOxAAADsQBlSsOGwAAABl0RVh0U29mdHdhcmUAd3d3Lmlua3NjYXBlLm9yZ5vuPBoAACAASURBVHic7d19tGfVWdjx7507khliBmSSZgLSqXkhUUKFOCyICFQJCRDMgIlabYRpbQANBpW2tBOlsUYb2xKIrqUrL7YzxNbEGDO0IcZEg8HUGBiwM4kmBNQlMOEl8g4zA2Fm+se5J9wZ7tz7e3n23mef8/2s9axEJPs853d+zznP3efs8wNJkiRJkiRJkiRJkiRJkiRJkiRJkiRJkiRJkiRJkiRJkiRJkiRJkiRJkiRJkiRJkiRJkiRJkiRJkiRJkiRJkiRJkiRJkiRJkiRJkiRJkkqaWeSfnw6sB9YBa4DVuZKSeuQJ4CngG8CDwNeBe4G/B746F1+Z+3eG5BDgO4FjgJcBa2nOMy8AjgC+Ze7feW6pBKWKPQDcA9wMbAE+B+w78F9aqAE4DbiK5sIvKb0ngb8EbgJuAD4DPFo0o3iHAT8A/DPgJOB44DklE5IG5AvA5cD/nf8PD2wA/i3wn4HZTElJerangc8DHwV+H9hRNp2JfTvwJuCNwMnA8rLpSIP2NPBvgPe0/2B+A/AfgF/NnZGkRe0FPgu8D/gDun+r4DnADwEX0cwmLiubjqQDXA68G55pAM4EPonFKnXZ/cBvAb9Bc4+vS54PvA24hOY+vqRu2gO8BvjTGZrp/m3AsUVTkjSqx4H3Au8C/qFwLs8H/j1wMfCthXORNJptwKtmaJ7031I4GUnje4SmCXgPsCvztg8Ffhb4dzQP+Emqy+tnae79H186E0ljW0EzlfdjwG3A32Ta7vcDHwd+ZC4HSfXZvYxmSY6ker2Y5hmeDwKHJ9zOEcD/olmmeEzC7UhK76QZmmnEVaUzkRTiLuBCmvcJRPoBYDPN0j5J9XtkGV78pT45Gvhj4Bc4+Js+xzEDvAP4NF78pT45bIYFXg8oqRe2ABcAj034v19Fc1vhDWEZSeoMGwCp374InAPcPeb/7kXA9cAJ4RlJ6gQbAKn//g44i+aHh0bxCpqHCtcmy0hScTYA0jDcR/Mg318v8e+9nOYBwhclz0hSUTYA0nDcQ/NrfAebCXgFzcV/Ta6EJJVjAyANy93A99IsF5zvSODPcdpfGgx//Ecalm8H/jf7L/89DPhDvPhLg2IDIA3P8cDv0NT/srn//k+LZiQpO28BSMP1SzQNwC+WTkRSfikagCOCx5Nqtgp47lwcRfMO/WOAdTR/dUe8rW9Se+f+s+RM4F5gO3ALzcOJtwFfA56Yi0fLpSYV92bg11NuYF9wSBrN84E30fzAzk7ia7GrsRP4n8AbgdVTf4pSf32YtLVoAyB1wGHAW4AvU/4CnSr+GvjX+Psj0iiWAw9iAyANxjLgR4AvUf6CHRXbaf7a96FjaXSnkL42bQCkDloOXEbzc92lL+CTxuM0vyR4SOxHIw3CO7EBkAbtaOCzlL+Yjxs30Dz0KGkyt2ADIA3ecuBXgD2Uv7AvFXtolhfOJvkkpGFYQ7NCxgZAEgA/BOyi/EX+YPEk8KPJ9l4ajg3kqVkbAKkiZwKPUf5if2A8CpyRcL+lIfkQNgCSFvD9wG7KX/TbeBJ4bdI9loZjFngAGwBJB3Ee8DTlL/57gB9OvK/SkORY/mcDIFXuHZRvAN6eeielgcmx/M8GQKrcMuDTlLv4fwaf9pei3YoNgKQRvAh4iPwX/weBF2bYP2lIci3/2wfs89WcUt3uAa4ssN2NwH0Ftiv12Vlk/oVQZwCkus2S561hbdyE7/WXUsi1/O+b12sbAKl+55LvpPG6TPskDUnO5X82AFLPbCX9CeNWMk9RSgORc/nfPvAZAKlPrsqwjXdhoy+lcHaJjToDIPXDCtKuCHgQeE62vZGGJefyP2cApJ7ZDXwk4fgfonntr6RYa4Djc2/UBkDql9+vdGxpyLIv/2t5C0Dqj0NJ80NBu4CVGfdDGpIPk3n6H28BSL2zE/hCgnE/T9MESIo1C7ymxIZtAKT+uSnBmDcnGFMSnAwcUWLDNgBS/9yWYMyvJBhTUqHlf2ADIPVRigYgxZiS4JxSG7YBkPrna5WMKQ1dkeV/LRsAqX8eTTDmYwnGlIau2PI/sAGQ+ijFxfrxBGNKQ1fs/j80nUf02n1/KEQqz7qWum05cD/wbaUScAZAkqT8TqLgxR9sACRJKqHo9D/YAEiSVELxBsBnAKR+sq6l7lpDs7S2aF05AyBJUl5Fl/+1bAAkScqr+PQ/eAtA6ivrWuqmWZrlf0V+AGg+ZwAkScqn2K//HcgGQJKkfDox/Q/Nm4hqNAOcDqwH1tE8Ubm6aEb99QBwL7AV2ALcSPz0sgTWdU7WdTmdaQCgOeiRkdppwM0J8jZGi5uAU5c8SirNujas6+5ZA+yl/PH+Zl2HD5jQZcDTCXI2xoungSuWOFYqy7o2rOvu2UD54zw/4gdMZGOCXI3pwpNFd1nXhnXdPR+m/PGdH/EDJnAmsCfRB2BMHnuAMxY5birHujas626ZpXn2ovTx/WbU8B6AWWAbcGzwuIrxReAEmpOGusO61jSs63inAJ8rncR8NSwDPBdPEl12HHBO6SRUHeu626zreJ16+h/qaADOL52AlnRe6QRUHeu6+6zrWDYAEzipdAJa0smlE1B1rOvus67jrKG5pdIpNTQAR5ZOQEs6qnQCqo513X3WdZxO/PrfgWpoAGp9W+GQeIw0Lr8z3ecxitO56X+oowG4p3QCWtKO0gmoOtZ191nXMWaB15ROYiE1NADbSiegJW0vnYCqY113n3UdozO//negGhqA60onoCVtKZ2AqmNdd591HaOT0//QPJTQ9ReGrARuA44OHlcxdgDHADtLJ6L9WNeahnUd5xbgVaWTWEgNMwC7gCtLJ6GD2ognCY3Puu426zpGJ5f/zRf9fuFU3pcgV2O62LTYAVNR1rVhXZe3gfLHc7GIHzCRQ4DNCfI1JotNc8dE3WRdG9Z1eV379b8DI37AxC4G7k+QtzFa3AdctORRUmnWtWFdl9W5X/9bIOIHzGAVcCnwaeChBPtg7B8PzX3WbwWeN8LxUXnWtWFdl3UK5Y/xolHDKoBRrARWFNjuEOymeWBLdbGutRjrOr13Am8vncRi+tIASNqfdS2VFb38bxdNUxymhmWAkiTVJMXyvxuCx7MBkCQpWIpf//vD4PFsACRJCpbi9b+fjB7QZwCkfrKupTJmaZa0Rv4A0O00r2YOrWtnACRJipPi1/8+ETweYAMgSVKkFNP/4ff/wVsAUl9Z11IZKZb/rZ77T28BSJLUQamW/yV5aZMNgCRJMapY/teyAZAkKUYVy/9aPgMg9ZN1LeWVcvlfy2cAJEnqmGqW/7VsACRJml41y/9a3gKQ+sm6lvJKufyv5S0ASZI6pKrlfy0bAEmSplPV8r+WDYAkSdOpavlfy2cApH6yrqU8ciz/a4XW9fLIwTKaAU4H1gPraO6/rC6akbSwB4B7ga3AFuBG4i/OfWFdq0bLgMOCx0w+/Q91zgCcBlxFc4KQanMzcDnwZ4m3Y11L9TqbhW8BhNZ1bQ3AZTQnidmE25BS2wO8Hfi1hNuwrqU6LbT8rzXYZYAbgWvwJKH6zQLvAq4onUgHWNfS/pIv/2vVMgNwJs10SE0Ni7SUvcBrgT9JMLZ1LdXpbcBvHOT/N7hbALPANuDY4HGlLvgizQtE9gSPa11LdXoZcMdB/n+DuwVwLp4k1F/HAeeUTqIA61p6tts5+MU/XA0NwPmlE5ASO690AgVY19KzJf31vwPV0ACcVDoBKbGTSydQgHUtPVvyt//NV8MzAI8Aq4LHlLrkEeDw4DGta6kuiy3/aw3uGYBa31YojWqI3/Eh7rO0mGzL/1o1NAD3lE5ASmxH6QQKsK6l/WV5/e98NTQA20onICW2vXQCBVjX0v6y3v+HOhqA60onICW2pXQCBVjX0jOyLv9r1dAAfAS4q3QSUiI7gI+VTqIA61p6Rtblf60aGoBdwJWlk5AS2QjsLJ1EAda19Izs0/9QxzLA1vuAtyQaWyphM7Ah0djWtVSHUZb/tQa3DLB1KXBt6SSkIJuBi0on0QHWtYYu+/K/Vk0NwFPAhcAlwNcL5yJN6n7gYpq//J8qm0onWNcauiLT/1DXLYD5VgEXAOuBdcS/RU2K9DCwleZp/2uBxzJs07qW6rDYr/8daHA/BzyKlcCKAtuVlrKbMtN71rUUaxb4G2JfYX07cMwY/35oXffldZy7KHQPRVIy1rW65BTif7+iyPK/Vk3PAEiSVMrZCcbM/vrf+fpyC0DS/qxrKdYtwKsCxxtn+V9rsMsAJUkqYQ1wQvCYxZb/tWwAJEla3FnEz4IVnf4HGwBJkpaS4v5/sfX/LZ8BkPrJupZizNK8wOuIwDHHXf7X8hkASZIyOZnYiz8UXv7XsgGQJOngerf8r+UtAKmfrGspRheW/7W8BSBJUga9XP7XsgGQJGlhvVz+17IBkCRpYb1c/tfyGQCpn6xraTpdWv7X8hkASZIS6+3yv5YNgCRJz9bb5X8tbwFI/WRdS9Pp0vK/lrcAJElKqNfL/1o2AJIk7a/Xy/9ay0snMKEZ4HRgPbCOpltbXTQjaWEPAPcCW4EtwI3ET8/3hXWtrliZYMzOLP9r1fgMwGnAVTQnCKk2NwOXA3+WeDvWtdQd0y7/aw36GYDLgM/gSUL1OpHmXuAVpRPpEOtafdep5X+tmhqAjcA1NC9nkGo2C7wLmwCwrjUMnbv/D/XcAjiT5v5JTQ2LtJS9wGuBP0kwtnUtdUPE8r/W4G4BzAJXU0eu0jiW0Xy3h/jXr3Wtoejc8r9WDcV3LnBs6SSkRI4DzimdRAHWtYaic0//t2poAM4vnYCU2HmlEyjAutZQdPL+P9TRAJxUOgEpsZNLJ1CAda0huB24o3QSB1NDA3Bk6QSkxI4qnUAB1rWGoJPL/1o1NAC1vq1QGtUQv+ND3GcNT2fv/0MdDcA9pROQEttROoECrGv13S7gs6WTWEwNDcC20glIiW0vnUAB1rX6rrPL/1o1NADXlU5ASmxL6QQKsK7Vd519+r9Vw5sAVwK3AUcHjyt1wQ6aHwnZGTyudS2V9TLiVwAM7k2Au4ArSychJbKR+It/Daxr9Vmnl/+1amgAADYB7y+dhBRsM3Bt6SQK2oR1rX7q9PK/Vi0NAMClDPtkqX7ZDFxUOokOsK7VR51e/teqqQF4CrgQuAT4euFcpEndD1wMbKD5Tg+dda2+6fzyv1YNDwEuZBVwAbAeWAccnmGb0qQeBrbSPO1/LfBYhm1a11IZnwBen2js0LqutQE40EpgRYHtSkvZTZm1wNa1tLQ3A78ePObbgN8IHrMVWtd9eR3nLjr+wgVJY7Ouldr3JRiz8+v/W32ZAZC0P+taWtwszTM5RwSOeTvNez1SGdx7ACRJivZqYi/+UMnyv5YNgCRpiM5OMGY10//gLQCpr6xraXG3AicEjrcLWE3a51a8BSBJ0hTWAMcHj9n5X/87kA2AJGloziJ+Vquq6X+wAZAkDU+K+/9VvP53Pp8BkPrJupYWVuPyv5bPAEiSNKHBL/9r2QBIkoZk8Mv/Wt4CkPrJupYWVuPyv5a3ACRJmoDL/+axAZAkDYXL/+axAZAkDYXL/+bxGQCpn6xraX81L/9r+QyAJEljcvnfAWwAJElD4PK/A3gLQOon61raX83L/1qhdb08crCMZoDTgfXAOpqlHauLZiQt7AHgXmArsAW4kfiLc19Y10rp8ODxql3+N9++4EjtNODmBHkbRo64CTiV9KLzTs26NmqLnyG/0H2o7RmAy4DP0Px1INXoRJq/HK4onUiHWNeqUdX3/6GuhwA3AtfQLOWQajYLvAubALCuVafbgTtKJzGtWhqAM4FfLp2EFOxXgTNKJ1GQda1aVf/XP9TRAMwCV1NHrtI4ltF8t4f41691rZrZAGRyLnBs6SSkRI4DzimdRAHWtWq1C/hs6SQi1NAAnF86ASmx80onUIB1rVrdQA+W/0EdDcBJpROQEju5dAIFWNeqVbU//nOgGhqAI0snICV2VOkECrCuVate3P+HOhqAWt9WKI1qiN/xIe6z6teL5X+tGhqAe0onICW2o3QCBVjXqlFv/vqHOhqAbaUTkBLbXjqBAqxr1cgGILPrSicgJbaldAIFWNeqTW+W/7Vq+DnglcBtwNHB40pdsAM4BtgZPK51LcX6BPD6wjmE1nUNMwC7gCtLJyElspH4i38NrGvVpjfL/1o1NAAAm4D3l05CCrYZuLZ0EgVtwrpWPXp1/x/qaQAALmXYJ0v1y2bgotJJdIB1rRr0avlfq6YG4CngQuAS4OuFc5EmdT9wMbCB5js9dNa1atC7v/6hjocAF7IKuABYD6wDDs+wTWlSDwNbaZ72vxZ4LMM2rWspztl04xmA0LqutQE40EpgRYHtSkvZTZkfDrGuNVQ3Aq8MHG8XsJpu/ABQaF335XWcu+jGwZEUx7rWuNYQ/zPTvfn1vwPV9AyAJEmLOYv42ape3v8HGwBJUn+cnWDMLtz7T6IvzwBI2p91raGZpVllc0TgmLfTvKmzKwb3JkBJkpbyamIv/tDj6X+wAZAk9UOK6f9eNwDeApD6ybrW0NwKnBA4XpeW/7W8BSBJ0jxrgOODx+zt8r+WDYAkqXYu/5uADYAkqXYu/5uAzwBI/WRdayiGsPyv5TMAkiTNcfnfhGwAJEk1c/nfhLwFIPWTda2hGMLyv5a3ACRJwuV/U7EBkCTVyuV/U7ABkCTVyuV/U/AZAKmfrGv13ZCW/7V8BkCSNHgu/5vS8tIJTGgGOB1YD6yjeRBkddGMpIU9ANwLbAW2ADcS/9e5NEQu/wuwLzhSOw24OUHehpEjbgJOJb3ovKWuuZXY7/hOYGXWPRhfeF3XdKK4DHg6Qc6GkTOeBq4greicpS5ZA+wl9jt+fdY9mExoXdf0DMBG4BqaBz+kms0C7yJ9EyD1lcv/gtTwl8KZwJ4EuRpGydgDnEEa0blKXfJh4r/jL826B5MJ3ecalgHOAtuAY4PHlbrgizSvMd0TPG7X61qa1BCX/7VC67qGWwDn4sVf/XUccE7pJKSKnIzL/0LU0ACcXzoBKbHzSicgVcTlf0FqaABOKp2AlNjJpROQKhI9Y7YL+GzwmFWooQE4snQCUmJHlU5AqoS//heohgag1rcVSqPyOy6NxuV/gWpoAO4pnYCU2I7SCUiV8Nf/AtXQAGwrnYCU2PbSCUgVmAVeEzzm7cAdwWNWo4YG4LrSCUiJbSmdgFQBl/8Fq6EB+AhwV+kkpER2AB8rnYRUAZf/BauhAdgFXFk6CSmRjTS/QiZpcS7/C1ZDAwCwCXh/6SSkYJuBa0snIVXA5X8J1NIAAFyKJ0v1x2bgotJJSJVw+V8CNTUATwEXApcAXy+cizSp+4GLgQ0032lJS3P5XwI1/BrgQlYBFwDrgXXA4Rm2KU3qYWArzdP+1wKPZdhmjXUtLWTIv/53oNC6rrUBONBKYEWB7UpL2U2Z+4x9qGsJ4BTgc8Fj/jpwWfCYOYTWdV9eQbqLgT/MIQ3MLM1M4FPAE4VzUVou/0toX3BIKq+PdX0kzZLgL9A0/G1uD9C8MOwtwPOLZadUbiH2u7yTZta4RuF13ccThTR0farr5wC/QnM7Zak8vwF8CpuBvlgD7CX2u3x91j2IZQMgaUl9qesjaO7/TpKzzUD9LiT+u/wzWfcglg2ApCX1oa5XAn8+Ro42A/3zIeK/yy/NugexbAAkLakPdf3uMXMcNZ6mmVW4jGaKWd00S/N8R+Sx/2rWPYhnAyBpSbXX9UtoLtQpGoD54cxAd51C/PF+T9Y9iGcDIGlJtdf1VVPmazNQv3cSf4zPyroH8WwAJC2p9rq+fcp8bQbq5/K/Z7MBkLSkmut6FfFLv2wG6uLyv4XZAEhaUs11fUxw7pEx/wHCF6b6AMQG4o/dpTl3IBEbAElLqrmuXxqce6pwZiAdl/8tzAZA0pJqrutDgT2BudsM1GUWeJDY41P78r+WDYCkJdVe1385Zb4lw9sE03H538GFfi7LMicvSaOo+YGtWZqL2DXA3TgzMC5//S+j2v9SkPRstdf1d0+ZbxejvU1wIXBI3EfVOy7/O7jwuq79RCHp2fpQ17eNmWNNcTfwU8BM2KfVDymW/30i6x6kFfo99BaApK76SOkEEjoK+E3gYzTvPVDjLOKboj41AOH68JeCpP31oa77eBtgodgKfFvQZ1a7DxP/+fZh+V8r9LOZIb64c0xpzQCnA+uBdTTTRqszbFca1wPAvTQn+S3AjeS5oNZY1wv5MvCKQtvO6RbgTOCh0okUNAvcDxwROObtNC+W6ovwc0dtfymcBtycIG/DyBE3AaeSXnTepaT4QZiuxtBnAlz+t7TQz6e2ZwAuAz5D81e/VKMTgRuAK0onUok+PwdwoO8BPs1wmwCX/xVQy18KGxPkahglI2UTEJ1rSV8mfn+6HEOdCXD539JCv2u1zACcCfxy6SSkYL8KnFE6iQp8tHQCmQ1xJmANcELwmDcAu4LH7JUaGoBZ4GrqyFUaxzKa7/Zs6UQ6bki3AVpDawJSLP9z+n8JNVxUzwWOLZ2ElMhxwDmlk+i4bcBXSidRwJCagBT3/z+ZYMxeqaEBOL90AlJi55VOoAIpbgM8DOxOMG6k76H5XYQ+vyxoluY2b6TbgTuCx+ydGhqAk0onICV2cukEKpDiNsATND/Q8wbgg3P/dxe9mmb1U19nAk4mft+c/h9BDQ3AkaUTkBI7qnQCFUhxG+Ao4Hjg/wAXAC+gu81An28HuPyvkBoagOWlE5AS8zs+mhS3AX543n/fRbebgb42AdENwC7gs8Fj9lbX1wvfkSBHw+hS3Ea86By7IMVvA9zN0n8IrQR+ELgWeDxBDuNGn94TkOLX/67Pugd5hX6XapgB2FY6ASmx7aUTqESq2wCvXuLf6drMQJ9mAlz+V1ANDcB1pROQEttSOoGKpL4NsJSuNAN9aQJc/ldY16cKVwJ3JsjTMLoQdwOHEi86z65IcRvgLqb/Y+h5wI/T/MGS8/vz59S7RHCW5tcyIz+Pr2bdg/zC67qGE8WGBHkaRhfiAtKIzrNLUvw2wCmB+f1cgvwWi1qfCfDX/8YX+nnVcAsAYBPw/tJJSME20zxYpvGUvg2wlKuBnw8cbym13g5w+V8H1PKXwiE0J8ycnbVhpIpNNN/pVKLz7ZJSqwHG5UzA4vz1v/GF13VtJ4qLgfsT5G0YOeI+4CLSi867a7p+G6BlE7Awl/9NJryuazxRrAIupZn2eijBPhhGZDxE8119K83DYjlE70PXvJP4fbwmUa42Ac92IfH7fWnWPSgj9DObIb64o9d0jmIlsKLAdqWl7KbMb5L3oa4X893A/wse825gLc1fptEuB/5bgnEP5vM0a+wfzbjNcXwI+NHgMR8HvhE85oEeAZ4CHqO55fAI8Pfz4u+AL5Gu5sOb8b7/pSAN0RDq+jbi9zPFbYDW5QnyXSy6ukQwxfK/LsU3aJrT99Pc7ntZzMcGCXKNH1BScUOo65puA7RsAtIs/+t63Aa8G3gN8C1TfHbhdR0+oKTihlDXKVYDfI30b0gd+jMBKRq3muJB4L3ACRN8dtG5xA8oqbih1HVttwFaQ54J2Erefe9y3EzzQOSoswLR248fUFJxQ6nrGm8DtIY4E5Bi+V8f4u+By1j6teDR240fUFJxQ6nrWl4KdDBDmwm48CB5GU3cB/wUzYOSC4neXvyAkoobUl3XehugNaQmwLe5jhbbgTMW+PyitxM/oKTihlTXNd8GaA2lCbh1wnyHGr8PvHDe5xc9fvyAkoobUl2nuA3wJHBuzp1gGE3A40G5DynuB35o7vOLHjt+QEnFDa2uU9wGsAmI92Ci/RhCXJtgzPgBJRU3tLpOtbbcJiDWHZn2yRgt4geUVNzQ6jrFbYA2ngTW59sVoL9LBH83834Zi0f8gJKKG2Jdp/iJ4DZsAmL888z7ZCwe8QNKKm6IdZ36FbMlbgf8fFDuo0bq2wGHAndm3ifj4BE/oKTihljXKW8DtOFMwPScBehOxA8oqbih1nWK1QAHxm6cCZjGDM1P5Za++BkpBpRU3FDr+h3kOXHaBExnGWmWtRnjRfyAkoobal3/I2AneU6e3g6Y3g/TvOim9IVwqBE/oKTihlzX7ybfCdSZgOmtAv4l8MfAvZn3bdAxM/dfIs0Ej3ewbZxO032vo/mJydUZtqvpPUBT5FuBLcCNxH8HR7XQ9wi6k980aqzrKCtojtuJmbb3JPAm4OOZtgdNE3BVxu19HjgLeDTDtlYAKzNsZxKH0eT3XOBFwIuBl9A8gLpu7p9XJbqrSO004OYEeRtl4ibgVPIb9XtUKr9pRR+n2hxN8xvrub7HzgRoOU0T8HbgFsqfW0eq65pOFJcBTyfI2SgbTwNXkM+436Pc+UWIPkY1+g5sAqLDJmB03wH8Mt2+rVHNiWJjglyNbkWOi+w036OamoDoY1Mrm4D4sAkYzyHATwBfpfw59ll1XcOJ4kxgT6IPwOhO7AHOIJ1pv0ep84sUfWxqZhMQHzYB4/sW4BLgHsqfa79Z110/UcwCX8r0YRjlY/vcMY8W9T1KlV+06ONSu38M/C35vscllgj+bFDuo0auHxDqm8OA9wJ7KX++7fyJYn3GD8PoRvwg8SK/RynyixZ9TPrAmYD4cCZgcq+j/DsQOn+i2JTpgzC6E79NvE0dzy9a9DHpC2cC4sOZgMkdBfwF5c61nT9RpPyJT6Ob8VfEi/wepcgvWvQx6RNnAuLDmYDJrQA+SplzbedPFI9k/DCMbsTDxIv8HqXIL1r0MekbZwLiw5mAyc0Cm8l/ru38ieKJjB+G0Y14nHiR36MU+UWLPiZ95ExAfDgTMLlZ4HfJe7w6f6K4I+OHYXQjbiNe5PcoRX7Roo9JXzkTEB/OBExuBU0TleVYLcu0U9PYVjoBZbc9wZiR36MU+amMO2ne7XBnpu0dAnyYJSZ/hwAADFJJREFUvDMB1wCXZ9ze9wDX40zAJHYD55Hv+9j5vxQuSJCj0e34F8SL/B6lyC9a9DHpO2cC4sOZgMmdSp6X33X+RLGSphvK+cU1ysXdwKHEi/oepcovWvRxGQKbgPiwCZjce0h/fKo4UWxItPNG9+IC0tnQ8fwiRR+XofDBwPjwwcDJHArsIO2xqeZE8b4EuRrdik2kN833KEd+UaKPzZCUmAl4Q5Y9e4YzAXW4iLTHpZoTxSGUWSdp5IlNc8c4tUm/R7nyixJ9fIbGmYD4cCZgfMuBr5DumFR3oriY8u9PNuLiPpouN7dRv0el8ptW9HEaImcC4sOZgPH9NOmOR5UnilXApcCngYcS7IORNh6aO3ZvBZ5HOQf7HnUlv2lEH7OhsgmID5uA8TwPeJQEx2KG+OKeCR5vFCtpXqCg7tsN7CqdxEGsnPvPruY3jj7UdVe8GLiBphnI4UngTcDHM20PmtsBV2Xc3ueBs2gubFraB4CfTDGwfylI/WNdx3ImwJmAkiJ/zny/uvZEIfWPdR3PJsAmoJTn0sye2gBIWpJ1ncaLcXVAdLg6YDQ3YAMgaQTWdTrOBMSHMwFLuxobAEkjsK7TsgmwCcgtxUuBPFFIPWRdp+ftgPjwdsDBnYINgKQRWNd5OBMQH84ELOxl2ABIGoF1nY9NgE1ADi/EBkDSCKzrvGwCbAJSW4kNgKQRWNf5+UxAfPhMwDMOIfazfYrgAT1RSN1gXZexFmcCosOZgMZqYj/Xhwge0BOF1A3WdTk2ATYBKXwHsZ/pXQQP6IlC6gbruqwStwNen2XPnuHtgLxOIvbz/ArBA3qikLrBui7PJsAmINJPEPtZ3kTwgJ4opG6wrrthLd4OiI6h3g74FWI/x98jeEBPFFI3WNfd4UxAfAxxJuATxH6G/4XgAT1RSN1gXXfLWpwJiI4hzQQsBx4l9vO7hOABPVFI3WBdd48zAfExlJmAFL8D8FoSDCqpPOu6m9biTEB0DGEm4L8S+5ntBV5A8KCeKKRusK67yybAJmAcy4C7if28vtoO7olC6h/rutu8HRAffb0d8DriP6sPtoN7opD6x7ruPpsAm4BRfIr4z+mn28E9UUj9Y13XYS3eDoiOPt0OiH77XxvHtBvwRCH1j3VdD2cC4qMvMwF/RPxn81fzN+CJQuof67oua3EmIDpqnwl4I2k+l3fO34gnCql/rOv6OBMQH7XOBHwrcCdpPpMT52/IE4XUP9Z1ndbiTEB01DgTsIk0n8WXgZn5G/JEIfWPdV0vm4BhNwH/inSfw9sO3JgnCql/rOu6eTsgPmq4HfBqYCdp9v8JFmiCPFFI/WNd128ITcDPBeXehybgO4F/IN2+f2ChjXqikPrHuu4Hm4BhNAGvIN1Df/uAp4GXL7RhTxRS/1jX/bEWnwmIji49E3AicD9p93fTwTbuiULqH+u6X5wJiI8uzAS8GXictPv5FPCSgyXgiULqH+u6f2wC+tMErKS5J59jH9+7WCKeKKT+sa77aS3eDoiO3LcDfoBmPX6OffsH4AWLJeOJQuof67q/nAmIjxwzAccBH8u8XxuWSsoThdQ/1nW/2QTU0wR8L82Ff2/m/flTDnjr30I8UUj9Y133n01Ad5uA7wJ+Ebgtc/5tPAK8dJREPVFI/WNdD4NNQNkm4Lk0T9ifTfNmw98BvpY534Xix0ZJfob44n4oeLzaPQDcS/OgyRbgRrp1Qp0BTgfWA+uANXP/vLacVxfNqHuiH2qyrrtrBc1T5bk8SfNTtddn3ObPAe/OuL0naJbPLeZwRphiL+ADwFtG/ZdLdypDi5uAU0c6MumdBtxMP3M2DCNdDGEmoMa4FTh0nA+1dMJDjKeBK0Y5OAldNpdHn3M2DCNdDGGJYE1xF/Dt436gpZMecpS6oG4cI8c+5GwYRpqwCehGPEyzzHBspRMfcuwBzlj6EIU6c267Q8rZMIx04e2AsvEEza3RiZROfuixHZhd8ijFmAW+NNCcDcNIF84ElInHad4sOLHSO2DADy55lGKsH3jOhmGkC2cC8sZDwMnTfHjLpvkfK8x5mbZzfuBYuXLOtR1J03kO8FHyNgFX06y/H5qv0dyK/YtpBrEB6IapurgxnBQ4Vq6cc21H0vRsAtL7AnAizZK/qdgAdMNRmbZzZOBYNeYsKb3nAH9A3mcCrqa5HdB3vwt8P80MwNSWATsjBtJUlle4nRpzlpTHIcDvkXcm4Br6OxPwGPCTwI8Du6IGXQbcEzWYJrYj03Yij3WNOUvKx5mAGJ8HXgX89+iBlwHbogfV2LZn2k7ksa4xZ0l5ORMwuUdompnvA+5IsYFlwHUpBtZYtmTaTuSxrjFnSfk5EzCevcAHgZfTNDN7U27sUJrp3NJrGocad5Hvl7xWAncG5Hw3Y/7gxBT8fhpGP8L3BCwee4CPMeErfaexYYqkjenigqUPT6gNA83ZMIzyYRPw7HgK+B/Ad6X6AEbx25T/IIYWHxjpyMR73xg5Hhib8qcL+P00jL6ETUATtwNXAkcn3O+RHQJspvyHMpTYNPeZlzDpsd5EfTkbhtG9GGoTcDfwW8D3Jt7XiV0M3E/5D6qvcR9w0chHI61Rj3WNORuG0e0YShPwOeBy4JUZ9i/EKuBS4NM0PzhQ+otSezw091m+FXjeGMchh4Md6xpzNgyjrsjdBLyc/OeMvwAOy7Fz45oZ8d9bCaxImUiP7SbwzU0ZtCsSasvZ76cU40jgD8l3b/pJ4I3A9Ym383LgM5R5vfgXgNfRrO2XJKmz1gJ/S76/kp8k7XsCjqH8cuKtwLcl3EdJkkL0pQnowsXfJkCSVJXam4AuXfxtAiRJVam1Cejixd8mQJJUldqagC5f/G0CJElVqaUJqOHibxMgSapK15uAmi7+NgGSpKp0tQmo8eJvEyBJqkrXmoCaL/42AZKkqnSlCejDxd8mQJJUldJNQJ8u/jYBkqSqlGoC+njxtwmQJFXlxcCd5LtA7qb5mfJc29sJvDfj9vbR4V8RlCRpvrXknQnIefF/zdw+/mzmbTsTIEmqQt+agPkX/5ZNgCRJC+hLE7DQxb9Vogk4YtFPXZKkDqi9CVjs4t/K3QTcgk2AJKkCtTYBo1z8WzYBkiQtoLYmYJyLf8smQJKkBdTSBExy8W/ZBEiStICuNwHTXPxbNgGSJC2gq01AxMW/ZRMgSdICutYERF78WzYBkiQtoCtNQIqLf8smQJKkBZRuAlJe/Fs2AZIkLaBUE5Dj4t+yCZAkaQEvIe+vCO4D/mOWPXvGzwfmPkr4K4KSpCrkngl4EnhDlj17hjMBkiQtwCbAJkCSNFA2ATYBkqSBsgmwCZAkDZRNgE2AJGmgbAJsAiRJA5V7ieBu4PVZ9uwZJZYIHpplzyRJmoIzAfHxUWAmy55JkjQFZwLi4yfy7JYkSdOxCYiNvwUOybNbkiRNZy3wd+S7SPb9dsBrM+2TJElTcyYgLq7OtUOSJEVwJiAmPp5tbyRJCjKEmYDfDMr9YHFTvl2RJClOn2cCvg94LPH+/FGmfZEkKVwfZwJOBx7PsC/vT7wfkiQl1aeZgBx/+bfxI4n2QZKkbPowE5DrL/99wCPAYcH5S5JURM0zATn/8t8H/EJQ3pIkdUKNMwE5//LfB/wl/iCQJKmHamoCcl/87wP+yYS5SpLUeWvp/u2A3NP+9wGvHDNHSZKq0+UmwIu/JEkJdbEJ8OIvSVIGXWoCvPhLkpRRF5oAL/6SJBVQsgnw4i9JUkEllgj+AvmX+h0b9YFJktQXuWcCcoZ/+UuStIg+NgFe/CVJGkGfmgAv/pIkjaEPTYAXf0mSJlBzE+DFX5KkKdTYBHjxlyQpQE1NgBd/SZIC1dAEePGXJCmBLjcBXvwlSUqoi02AF39JkjLoUhPgxV+SpIy60AR48ZckqYCSTYAXf0mSCirRBHjxlySpA3I2AV78JUnqkBxNgBd/SZI6KGUT4MVfkqQOS9EEePGXJKkCkU2AF39JkioS0QR48ZckqULTNAFe/CVJqtiRwBcY7+L/FeDlJZKVJElxVgL/CXiMxS/8TwC/BnxrmTSfMVM6AUmSeuT5wPnAa4GXAkcADwN/A3wK2ALcWyw7SZIkSZIkSZIkSZIkSZIkSZIkSZIkSZIkSZIkSZIkSZIkSZIkSZIkSZIkSZIkSZIkSZIkSZIkSZIkSZIkSZIkSZIkSZIkSZIkSZIkSZI64/8DqcF5STIl98UAAAAASUVORK5CYII=;" parent="1" vertex="1">
          <mxGeometry x="645" y="420" width="110" height="110" as="geometry" />
        </mxCell>
        <mxCell id="dZiJLHgVnJzIoMVHUmFk-1" value="" style="endArrow=none;dashed=1;html=1;dashPattern=1 3;strokeWidth=2;rounded=0;" parent="1" edge="1">
          <mxGeometry width="50" height="50" relative="1" as="geometry">
            <mxPoint x="258.33" y="420" as="sourcePoint" />
            <mxPoint x="258.33" y="180" as="targetPoint" />
          </mxGeometry>
        </mxCell>
        <mxCell id="dZiJLHgVnJzIoMVHUmFk-2" value="" style="endArrow=none;dashed=1;html=1;dashPattern=1 3;strokeWidth=2;rounded=0;" parent="1" edge="1">
          <mxGeometry width="50" height="50" relative="1" as="geometry">
            <mxPoint x="444" y="513" as="sourcePoint" />
            <mxPoint x="444" y="273" as="targetPoint" />
          </mxGeometry>
        </mxCell>
        <mxCell id="dZiJLHgVnJzIoMVHUmFk-3" value="" style="endArrow=none;dashed=1;html=1;dashPattern=1 3;strokeWidth=2;rounded=0;" parent="1" edge="1">
          <mxGeometry width="50" height="50" relative="1" as="geometry">
            <mxPoint x="612" y="594" as="sourcePoint" />
            <mxPoint x="612" y="354" as="targetPoint" />
          </mxGeometry>
        </mxCell>
        <mxCell id="3aoTgxBbqaM0xlKg4kLN-1" value="Time" style="text;whiteSpace=wrap;fontStyle=1;fontSize=23;" vertex="1" parent="1">
          <mxGeometry x="320" y="500" width="60" height="40" as="geometry" />
        </mxCell>
        <mxCell id="3aoTgxBbqaM0xlKg4kLN-10" value="" style="shape=curlyBracket;whiteSpace=wrap;html=1;rounded=1;labelPosition=left;verticalLabelPosition=middle;align=right;verticalAlign=middle;rotation=90;strokeWidth=2;" vertex="1" parent="1">
          <mxGeometry x="600" y="250" width="22.5" height="175" as="geometry" />
        </mxCell>
        <mxCell id="3aoTgxBbqaM0xlKg4kLN-11" value="&lt;b&gt;&lt;font style=&quot;font-size: 14px;&quot;&gt;Three rounds&lt;/font&gt;&lt;/b&gt;" style="html=1;whiteSpace=wrap;aspect=fixed;shape=isoRectangle;" vertex="1" parent="1">
          <mxGeometry x="544.09" y="250" width="133.33" height="80" as="geometry" />
        </mxCell>
        <mxCell id="3aoTgxBbqaM0xlKg4kLN-13" value="" style="line;strokeWidth=2;direction=south;html=1;" vertex="1" parent="1">
          <mxGeometry x="694" y="345" width="10" height="70" as="geometry" />
        </mxCell>
      </root>
    </mxGraphModel>
  </diagram>
</mxfile>
